<svg width="41" height="40" viewBox="0 0 41 40" fill="none" xmlns="http://www.w3.org/2000/svg">
<g id="cross-icon" clip-path="url(#clip0_27_99)">
<path id="Vector" d="M3.2334 0C4.52246 0 5.81152 0 7.13965 0C7.13965 0.928125 7.13965 1.85625 7.13965 2.8125C8.06777 2.8125 8.9959 2.8125 9.95215 2.8125C9.95215 3.76641 9.95215 4.72031 9.95215 5.70312C10.9061 5.70312 11.86 5.70312 12.8428 5.70312C12.8428 6.63125 12.8428 7.55937 12.8428 8.51562C13.7967 8.51562 14.7506 8.51562 15.7334 8.51562C15.7334 9.46953 15.7334 10.4234 15.7334 11.4062C16.6615 11.4062 17.5896 11.4062 18.5459 11.4062C18.5459 12.3344 18.5459 13.2625 18.5459 14.2188C19.7834 14.2188 21.0209 14.2188 22.2959 14.2188C22.2959 13.2906 22.2959 12.3625 22.2959 11.4062C23.224 11.4062 24.1521 11.4062 25.1084 11.4062C25.1084 10.4523 25.1084 9.49844 25.1084 8.51562C26.0623 8.51562 27.0162 8.51562 27.999 8.51562C27.999 7.5875 27.999 6.65938 27.999 5.70312C28.9529 5.70312 29.9068 5.70312 30.8896 5.70312C30.8896 4.74922 30.8896 3.79531 30.8896 2.8125C31.8178 2.8125 32.7459 2.8125 33.7021 2.8125C33.7021 1.88437 33.7021 0.95625 33.7021 0C34.9912 0 36.2803 0 37.6084 0C37.6084 0.928125 37.6084 1.85625 37.6084 2.8125C38.5365 2.8125 39.4646 2.8125 40.4209 2.8125C40.4209 4.10156 40.4209 5.39062 40.4209 6.71875C39.4928 6.71875 38.5646 6.71875 37.6084 6.71875C37.6084 7.64687 37.6084 8.575 37.6084 9.53125C36.6545 9.53125 35.7006 9.53125 34.7178 9.53125C34.7178 10.4852 34.7178 11.4391 34.7178 12.4219C33.7896 12.4219 32.8615 12.4219 31.9053 12.4219C31.9053 13.3758 31.9053 14.3297 31.9053 15.3125C30.9514 15.3125 29.9975 15.3125 29.0146 15.3125C29.0146 16.2406 29.0146 17.1688 29.0146 18.125C28.0865 18.125 27.1584 18.125 26.2021 18.125C26.2021 19.3625 26.2021 20.6 26.2021 21.875C27.1303 21.875 28.0584 21.875 29.0146 21.875C29.0146 22.8031 29.0146 23.7313 29.0146 24.6875C29.9686 24.6875 30.9225 24.6875 31.9053 24.6875C31.9053 25.6414 31.9053 26.5953 31.9053 27.5781C32.8334 27.5781 33.7615 27.5781 34.7178 27.5781C34.7178 28.532 34.7178 29.4859 34.7178 30.4688C35.6717 30.4688 36.6256 30.4688 37.6084 30.4688C37.6084 31.3969 37.6084 32.325 37.6084 33.2812C38.5365 33.2812 39.4646 33.2812 40.4209 33.2812C40.4209 34.5703 40.4209 35.8594 40.4209 37.1875C39.4928 37.1875 38.5646 37.1875 37.6084 37.1875C37.6084 38.1156 37.6084 39.0438 37.6084 40C36.3193 40 35.0303 40 33.7021 40C33.7021 39.0719 33.7021 38.1437 33.7021 37.1875C32.774 37.1875 31.8459 37.1875 30.8896 37.1875C30.8896 36.2336 30.8896 35.2797 30.8896 34.2969C29.9357 34.2969 28.9818 34.2969 27.999 34.2969C27.999 33.3688 27.999 32.4406 27.999 31.4844C27.0451 31.4844 26.0912 31.4844 25.1084 31.4844C25.1084 30.5305 25.1084 29.5766 25.1084 28.5938C24.1803 28.5938 23.2521 28.5938 22.2959 28.5938C22.2959 27.6656 22.2959 26.7375 22.2959 25.7812C21.0584 25.7812 19.8209 25.7812 18.5459 25.7812C18.5459 26.7094 18.5459 27.6375 18.5459 28.5938C17.6178 28.5938 16.6896 28.5938 15.7334 28.5938C15.7334 29.5477 15.7334 30.5016 15.7334 31.4844C14.7795 31.4844 13.8256 31.4844 12.8428 31.4844C12.8428 32.4125 12.8428 33.3406 12.8428 34.2969C11.8889 34.2969 10.935 34.2969 9.95215 34.2969C9.95215 35.2508 9.95215 36.2047 9.95215 37.1875C9.02402 37.1875 8.0959 37.1875 7.13965 37.1875C7.13965 38.1156 7.13965 39.0438 7.13965 40C5.85059 40 4.56152 40 3.2334 40C3.2334 39.0719 3.2334 38.1437 3.2334 37.1875C2.30527 37.1875 1.37715 37.1875 0.420898 37.1875C0.420898 35.8984 0.420898 34.6094 0.420898 33.2812C1.34902 33.2812 2.27715 33.2812 3.2334 33.2812C3.2334 32.3531 3.2334 31.425 3.2334 30.4688C4.1873 30.4688 5.14121 30.4688 6.12402 30.4688C6.12402 29.5148 6.12402 28.5609 6.12402 27.5781C7.05215 27.5781 7.98027 27.5781 8.93652 27.5781C8.93652 26.6242 8.93652 25.6703 8.93652 24.6875C9.89043 24.6875 10.8443 24.6875 11.8271 24.6875C11.8271 23.7594 11.8271 22.8312 11.8271 21.875C12.7553 21.875 13.6834 21.875 14.6396 21.875C14.6396 20.6375 14.6396 19.4 14.6396 18.125C13.7115 18.125 12.7834 18.125 11.8271 18.125C11.8271 17.1969 11.8271 16.2687 11.8271 15.3125C10.8732 15.3125 9.91934 15.3125 8.93652 15.3125C8.93652 14.3586 8.93652 13.4047 8.93652 12.4219C8.0084 12.4219 7.08027 12.4219 6.12402 12.4219C6.12402 11.468 6.12402 10.5141 6.12402 9.53125C5.17012 9.53125 4.21621 9.53125 3.2334 9.53125C3.2334 8.60312 3.2334 7.675 3.2334 6.71875C2.30527 6.71875 1.37715 6.71875 0.420898 6.71875C0.420898 5.42969 0.420898 4.14062 0.420898 2.8125C1.34902 2.8125 2.27715 2.8125 3.2334 2.8125C3.2334 1.88437 3.2334 0.95625 3.2334 0Z" fill="black"/>
</g>
<defs>
<clipPath id="clip0_27_99">
<rect width="40" height="40" fill="white" transform="translate(0.420898)"/>
</clipPath>
</defs>
</svg>
