<svg width="40" height="40" viewBox="0 0 40 40" fill="none" xmlns="http://www.w3.org/2000/svg">
<g id="dark-mode-icon">
<path id="Vector" d="M14.7656 0C19.9477 0 25.1297 0 30.4688 0C30.4688 0.850781 30.4688 1.70156 30.4688 2.57812C31.9125 2.57812 33.3563 2.57812 34.8438 2.57812C34.8438 3.42891 34.8438 4.27969 34.8438 5.15625C35.6945 5.15625 36.5453 5.15625 37.4219 5.15625C37.4219 6.90938 37.4219 8.6625 37.4219 10.4688C32.2656 10.4688 27.1094 10.4688 21.7969 10.4688C21.7969 11.3195 21.7969 12.1703 21.7969 13.0469C20.9203 13.0469 20.0438 13.0469 19.1406 13.0469C19.1406 13.9234 19.1406 14.8 19.1406 15.7031C18.2898 15.7031 17.4391 15.7031 16.5625 15.7031C16.5625 18.5391 16.5625 21.375 16.5625 24.2969C17.4133 24.2969 18.2641 24.2969 19.1406 24.2969C19.1406 25.1734 19.1406 26.05 19.1406 26.9531C20.0172 26.9531 20.8937 26.9531 21.7969 26.9531C21.7969 27.8039 21.7969 28.6547 21.7969 29.5312C26.9531 29.5312 32.1094 29.5312 37.4219 29.5312C37.4219 31.2844 37.4219 33.0375 37.4219 34.8438C36.5711 34.8438 35.7203 34.8438 34.8438 34.8438C34.8438 35.6945 34.8438 36.5453 34.8438 37.4219C33.4 37.4219 31.9562 37.4219 30.4688 37.4219C30.4688 38.2727 30.4688 39.1234 30.4688 40C25.2867 40 20.1047 40 14.7656 40C14.7656 39.1492 14.7656 38.2984 14.7656 37.4219C13.3219 37.4219 11.8781 37.4219 10.3906 37.4219C10.3906 36.5711 10.3906 35.7203 10.3906 34.8438C9.53984 34.8438 8.68906 34.8438 7.8125 34.8438C7.8125 33.9672 7.8125 33.0906 7.8125 32.1875C6.93594 32.1875 6.05938 32.1875 5.15625 32.1875C5.15625 30.7695 5.15625 29.3516 5.15625 27.8906C4.30547 27.8906 3.45469 27.8906 2.57812 27.8906C2.57812 22.6828 2.57812 17.475 2.57812 12.1094C3.42891 12.1094 4.27969 12.1094 5.15625 12.1094C5.15625 10.6914 5.15625 9.27344 5.15625 7.8125C6.03281 7.8125 6.90938 7.8125 7.8125 7.8125C7.8125 6.93594 7.8125 6.05937 7.8125 5.15625C8.66328 5.15625 9.51406 5.15625 10.3906 5.15625C10.3906 4.30547 10.3906 3.45469 10.3906 2.57812C11.8344 2.57812 13.2781 2.57812 14.7656 2.57812C14.7656 1.72734 14.7656 0.876563 14.7656 0ZM14.8438 2.65625C14.8438 3.50703 14.8438 4.35781 14.8438 5.23438C13.4 5.23438 11.9563 5.23438 10.4688 5.23438C10.4688 6.11094 10.4688 6.9875 10.4688 7.89062C9.61797 7.89062 8.76719 7.89062 7.89062 7.89062C7.89062 9.30859 7.89062 10.7266 7.89062 12.1875C7.01406 12.1875 6.1375 12.1875 5.23438 12.1875C5.23438 17.3438 5.23438 22.5 5.23438 27.8125C6.11094 27.8125 6.9875 27.8125 7.89062 27.8125C7.89062 29.2305 7.89062 30.6484 7.89062 32.1094C8.74141 32.1094 9.59219 32.1094 10.4688 32.1094C10.4688 32.9859 10.4688 33.8625 10.4688 34.7656C11.9125 34.7656 13.3562 34.7656 14.8438 34.7656C14.8438 35.6164 14.8438 36.4672 14.8438 37.3438C19.9742 37.3438 25.1047 37.3438 30.3906 37.3438C30.3906 36.493 30.3906 35.6422 30.3906 34.7656C31.8344 34.7656 33.2781 34.7656 34.7656 34.7656C34.7656 33.9148 34.7656 33.0641 34.7656 32.1875C30.4602 32.1875 26.1547 32.1875 21.7188 32.1875C21.7188 31.3367 21.7188 30.4859 21.7188 29.6094C20.8422 29.6094 19.9656 29.6094 19.0625 29.6094C19.0625 28.7586 19.0625 27.9078 19.0625 27.0312C18.2117 27.0312 17.3609 27.0312 16.4844 27.0312C16.4844 26.1547 16.4844 25.2781 16.4844 24.375C15.6336 24.375 14.7828 24.375 13.9062 24.375C13.9062 21.4875 13.9062 18.6 13.9062 15.625C14.757 15.625 15.6078 15.625 16.4844 15.625C16.4844 14.7484 16.4844 13.8719 16.4844 12.9688C17.3352 12.9688 18.1859 12.9688 19.0625 12.9688C19.0625 12.118 19.0625 11.2672 19.0625 10.3906C19.9391 10.3906 20.8156 10.3906 21.7188 10.3906C21.7188 9.53984 21.7188 8.68906 21.7188 7.8125C26.0242 7.8125 30.3297 7.8125 34.7656 7.8125C34.7656 6.96172 34.7656 6.11094 34.7656 5.23438C33.3219 5.23438 31.8781 5.23438 30.3906 5.23438C30.3906 4.38359 30.3906 3.53281 30.3906 2.65625C25.2602 2.65625 20.1297 2.65625 14.8438 2.65625Z" fill="black"/>
</g>
</svg>
