<svg width="57" height="41" viewBox="0 0 57 41" fill="none" xmlns="http://www.w3.org/2000/svg">
<g id="difficulty-filled-icon">
<g id="Group 1">
<path id="Vector" d="M17.4376 5.121C17.5219 5.12069 17.6061 5.12038 17.6929 5.12006C17.8707 5.11984 18.0485 5.12044 18.2263 5.12179C18.4977 5.12352 18.7688 5.12181 19.0401 5.11974C19.2132 5.11995 19.3863 5.12037 19.5594 5.121C19.6401 5.12035 19.7209 5.11969 19.804 5.11902C20.334 5.1261 20.7104 5.21322 21.0922 5.59503C21.1278 7.05318 21.1633 8.51132 21.2 10.0137C25.9656 10.0137 30.7313 10.0137 35.6413 10.0137C35.6769 8.55551 35.7125 7.09736 35.7491 5.59503C36.2268 5.11729 36.6207 5.14563 37.2609 5.14205C37.3455 5.14144 37.4301 5.14082 37.5173 5.14019C37.6962 5.13917 37.8752 5.13847 38.0541 5.13805C38.3275 5.137 38.6009 5.13366 38.8743 5.13026C39.0482 5.12956 39.2221 5.12899 39.3961 5.12858C39.5185 5.12658 39.5185 5.12658 39.6434 5.12455C39.9682 5.12592 40.2397 5.14987 40.5431 5.26908C40.8072 5.62143 40.7607 6.00462 40.7533 6.42689C40.7544 6.61591 40.7554 6.80493 40.7565 6.99395C40.7556 7.29197 40.7537 7.58995 40.7514 7.88796C40.7498 8.17559 40.7514 8.46308 40.7533 8.75071C40.7516 8.83997 40.7498 8.92922 40.7479 9.02118C40.7519 9.51612 40.7519 9.51612 41.0283 9.90728C41.4596 10.0485 41.8503 10.0652 42.3017 10.0688C42.3918 10.0707 42.482 10.0727 42.5748 10.0747C42.8614 10.0805 43.148 10.0841 43.4346 10.0878C43.6294 10.0913 43.8243 10.095 44.0191 10.0989C44.4956 10.108 44.972 10.1153 45.4485 10.1214C45.6962 10.6171 45.7009 11.0669 45.7087 11.6088C45.7118 11.744 45.7118 11.744 45.715 11.8819C45.7215 12.1685 45.7265 12.455 45.7314 12.7416C45.7356 12.9365 45.7398 13.1313 45.7441 13.3262C45.7544 13.8026 45.7635 14.2791 45.7719 14.7556C46.1344 14.9369 46.5449 14.885 46.9439 14.8899C47.1386 14.8934 47.3334 14.897 47.5282 14.9006C47.8361 14.9058 48.1441 14.9105 48.452 14.9148C48.7486 14.919 49.0452 14.9246 49.3418 14.9303C49.4805 14.9317 49.4805 14.9317 49.6221 14.9331C50.2738 14.9467 50.2738 14.9467 50.5138 15.1867C50.5438 15.3804 50.5438 15.3804 50.5482 15.6168C50.5514 15.7494 50.5514 15.7494 50.5547 15.8848C50.5565 16.0281 50.5565 16.0281 50.5584 16.1743C50.5616 16.321 50.5616 16.321 50.5648 16.4706C50.5712 16.7835 50.5762 17.0965 50.5812 17.4095C50.5853 17.6214 50.5895 17.8333 50.5938 18.0452C50.6042 18.5652 50.6132 19.0852 50.6216 19.6053C51.1738 19.8282 51.6471 19.8495 52.2318 19.8465C52.4188 19.8482 52.6058 19.85 52.7928 19.8518C53.0853 19.8536 53.3778 19.8545 53.6704 19.8538C53.9543 19.8535 54.2381 19.8565 54.522 19.86C54.6091 19.8589 54.6962 19.8578 54.786 19.8567C54.868 19.8581 54.95 19.8595 55.0345 19.861C55.1061 19.8611 55.1776 19.8611 55.2513 19.8612C55.6415 19.9808 55.7741 20.1314 56.0101 20.4675C56.0912 20.9236 56.0826 21.3754 56.0782 21.8376C56.0793 22.0464 56.0793 22.0464 56.0805 22.2594C56.0825 22.6404 56.0811 23.0213 56.079 23.4023C56.0772 23.8012 56.0782 24.2002 56.0787 24.5991C56.0792 25.2689 56.0775 25.9387 56.0745 26.6084C56.071 27.3827 56.071 28.1569 56.0729 28.9311C56.0746 29.6763 56.0739 30.4214 56.072 31.1665C56.0713 31.4835 56.0714 31.8005 56.0722 32.1175C56.0732 32.56 56.0706 33.0024 56.0676 33.4449C56.0687 33.6424 56.0687 33.6424 56.0698 33.8438C56.0684 33.9642 56.067 34.0847 56.0656 34.2087C56.0653 34.3133 56.065 34.4179 56.0647 34.5257C55.9941 34.882 55.8596 35.0084 55.5791 35.2322C55.1786 35.3657 54.8042 35.3595 54.3868 35.3618C54.3019 35.3625 54.2171 35.3631 54.1296 35.3637C53.9502 35.3647 53.7709 35.3654 53.5915 35.3658C53.3169 35.3669 53.0423 35.3702 52.7677 35.3736C52.5935 35.3743 52.4192 35.3749 52.2449 35.3753C52.1627 35.3766 52.0805 35.378 51.9958 35.3793C51.4384 35.377 51.4384 35.377 51.1929 35.2313C50.9697 34.8897 51.0063 34.5259 51.0078 34.1308C51.0068 34.0406 51.0059 33.9503 51.005 33.8573C51.0023 33.5586 51.0018 33.2601 51.0013 32.9614C50.9998 32.7543 50.9981 32.5472 50.9962 32.3402C50.9917 31.7949 50.989 31.2496 50.9868 30.7043C50.9829 29.8306 50.9764 28.9569 50.9697 28.0832C50.9676 27.7773 50.9664 27.4713 50.9652 27.1653C50.9641 26.9789 50.963 26.7926 50.9619 26.6062C50.9618 26.5204 50.9617 26.4347 50.9615 26.3463C50.9943 25.9615 50.9943 25.9615 50.8371 25.6405C50.675 25.6305 50.5124 25.6279 50.35 25.6283C50.2465 25.6283 50.1429 25.6283 50.0362 25.6283C49.8673 25.6291 49.8673 25.6291 49.695 25.63C49.5803 25.6301 49.4657 25.6303 49.3475 25.6305C48.9796 25.6311 48.6117 25.6324 48.2439 25.6338C47.9951 25.6343 47.7464 25.6348 47.4977 25.6353C46.8865 25.6364 46.2753 25.6383 45.6641 25.6405C45.6643 25.7543 45.6646 25.8681 45.6648 25.9854C45.667 27.0574 45.6686 28.1294 45.6697 29.2014C45.6702 29.7525 45.671 30.3036 45.6722 30.8548C45.6734 31.3865 45.674 31.9183 45.6743 32.4501C45.6745 32.653 45.6749 32.856 45.6755 33.059C45.6763 33.3431 45.6764 33.6272 45.6763 33.9112C45.6767 33.9954 45.6771 34.0795 45.6775 34.1661C45.6768 34.5376 45.6756 34.8786 45.5563 35.2322C45.2069 35.4069 44.8231 35.3621 44.439 35.3656C44.3495 35.3665 44.2599 35.3674 44.1676 35.3683C43.9779 35.3698 43.7882 35.3709 43.5985 35.3718C43.3085 35.3736 43.0186 35.3783 42.7286 35.3831C42.5443 35.3842 42.3601 35.3851 42.1758 35.3858C42.0458 35.3887 42.0458 35.3887 41.9132 35.3916C41.3247 35.3893 41.2602 35.3547 40.8144 34.9089C40.7788 33.4507 40.7432 31.9926 40.7066 30.4902C32.6334 30.4902 24.5603 30.4902 16.2425 30.4902C16.2425 31.8773 16.2425 33.2643 16.2425 34.6933C15.9192 35.1244 15.9192 35.1244 15.7147 35.1784C15.6379 35.1784 15.5611 35.1785 15.482 35.1785C15.3509 35.18 15.3509 35.18 15.2171 35.1815C15.1232 35.1803 15.0292 35.1791 14.9324 35.1779C14.8355 35.178 14.7387 35.1782 14.6389 35.1783C14.4342 35.1782 14.2294 35.1769 14.0247 35.1747C13.711 35.1716 13.3975 35.1725 13.0838 35.1739C12.885 35.1732 12.6862 35.1723 12.4873 35.1711C12.3933 35.1715 12.2994 35.1718 12.2026 35.1721C12.1152 35.1707 12.0278 35.1694 11.9377 35.168C11.8609 35.1674 11.7841 35.1668 11.705 35.1662C11.5005 35.1244 11.5005 35.1244 11.3138 35.0149C11.0962 34.6743 11.1351 34.3147 11.1405 33.9235C11.1404 33.7894 11.1404 33.7894 11.1404 33.6526C11.1406 33.3569 11.1431 33.0613 11.1456 32.7656C11.1462 32.5607 11.1467 32.3558 11.147 32.1509C11.1483 31.6114 11.1514 31.0719 11.155 30.5324C11.1589 29.8852 11.1604 29.2379 11.1623 28.5907C11.1654 27.6073 11.1716 26.6239 11.1772 25.6405C9.39899 25.6405 7.62076 25.6405 5.78865 25.6405C5.79115 26.3136 5.79365 26.9867 5.79622 27.6802C5.79732 28.106 5.79836 28.5318 5.79917 28.9577C5.80046 29.6339 5.80199 30.3101 5.80491 30.9863C5.80724 31.5314 5.80854 32.0764 5.8091 32.6215C5.80949 32.8297 5.81027 33.0379 5.81143 33.246C5.81299 33.5371 5.81321 33.8282 5.81311 34.1192C5.81389 34.2057 5.81466 34.2923 5.81546 34.3814C5.81392 34.7947 5.808 34.9876 5.5731 35.34C5.27357 35.3728 4.99847 35.3852 4.69872 35.3829C4.56833 35.3834 4.56833 35.3834 4.43531 35.3838C4.25113 35.3841 4.06695 35.3835 3.88278 35.3821C3.60174 35.3804 3.32087 35.3821 3.03984 35.3842C2.86085 35.3839 2.68187 35.3835 2.50288 35.3829C2.41911 35.3835 2.33535 35.3842 2.24904 35.3849C1.62086 35.3768 1.27126 35.2412 0.831158 34.8011C0.803131 34.5522 0.803131 34.5522 0.801612 34.2346C0.800537 34.1145 0.799462 33.9944 0.798354 33.8706C0.798282 33.7382 0.798211 33.6058 0.798137 33.4694C0.79724 33.3304 0.796343 33.1915 0.795419 33.0483C0.793049 32.6664 0.792105 32.2845 0.791558 31.9026C0.791165 31.6641 0.790493 31.4255 0.789726 31.187C0.787084 30.3548 0.785679 29.5226 0.785297 28.6905C0.784905 27.9147 0.781685 27.139 0.77717 26.3632C0.773431 25.6973 0.771766 25.0315 0.771691 24.3656C0.771605 23.9679 0.770661 23.5702 0.767596 23.1724C0.764252 22.7286 0.765212 22.2849 0.766563 21.841C0.764965 21.7093 0.763366 21.5775 0.761719 21.4418C0.76942 20.5559 0.76942 20.5559 1.07607 20.1167C1.36097 19.9344 1.49519 19.8607 1.82691 19.8576C1.91318 19.8554 1.99944 19.8533 2.08832 19.8512C2.17984 19.8516 2.27135 19.852 2.36564 19.8524C2.46056 19.8508 2.55548 19.8492 2.65328 19.8475C2.95526 19.8429 3.25712 19.8419 3.55912 19.8411C3.76435 19.8386 3.96958 19.8358 4.17481 19.8329C4.67684 19.8261 5.1788 19.8226 5.68087 19.8209C5.67805 19.6964 5.67523 19.5719 5.67232 19.4436C5.66255 18.9806 5.65638 18.5177 5.65127 18.0547C5.64857 17.8545 5.64489 17.6543 5.64022 17.4542C5.63367 17.166 5.63063 16.878 5.62825 16.5898C5.62547 16.5007 5.62269 16.4115 5.61982 16.3197C5.6196 15.8492 5.6354 15.6745 5.94012 15.2943C6.42367 14.9218 6.82328 14.95 7.41532 14.9408C7.51258 14.9389 7.60984 14.9369 7.71005 14.9348C8.12723 14.9263 8.54444 14.919 8.96164 14.9116C9.26572 14.9061 9.56979 14.8999 9.87386 14.8937C9.96872 14.8922 10.0636 14.8908 10.1613 14.8893C10.6302 14.8935 10.6302 14.8935 11.0694 14.7556C11.0716 14.6305 11.0737 14.5055 11.0759 14.3766C11.0841 13.9122 11.0937 13.4479 11.1037 12.9835C11.1078 12.7826 11.1115 12.5817 11.1149 12.3808C11.1198 12.0918 11.1261 11.803 11.1326 11.514C11.1338 11.4243 11.1351 11.3346 11.1364 11.2422C11.156 10.472 11.156 10.472 11.3928 10.1214C11.5146 10.1187 11.6364 10.116 11.7619 10.1132C12.2142 10.1031 12.6665 10.0923 13.1188 10.0813C13.3145 10.0766 13.5102 10.0721 13.7058 10.0678C13.9873 10.0616 14.2687 10.0547 14.5501 10.0478C14.6375 10.046 14.7248 10.0442 14.8148 10.0423C15.3761 10.0303 15.3761 10.0303 15.9192 9.90589C16.0971 9.54993 16.0439 9.15266 16.0459 8.76124C16.0484 8.57186 16.051 8.38249 16.0537 8.19312C16.0575 7.89392 16.0606 7.59478 16.0621 7.29556C16.0637 7.00721 16.0681 6.71899 16.0728 6.43068C16.0726 6.34109 16.0724 6.25149 16.0722 6.15919C16.0851 5.55279 16.0851 5.55279 16.2996 5.26932C16.6775 5.11972 17.0374 5.11777 17.4376 5.121ZM16.3824 15.2158C16.2105 15.4448 16.2032 15.5605 16.2058 15.8446C16.2058 15.933 16.2058 16.0214 16.2058 16.1126C16.2075 16.2075 16.2092 16.3025 16.2109 16.4004C16.2114 16.498 16.2118 16.5956 16.2123 16.6962C16.2141 17.0081 16.2182 17.3199 16.2223 17.6318C16.2239 17.8432 16.2254 18.0546 16.2267 18.266C16.2303 18.7843 16.2358 19.3026 16.2425 19.8209C16.5853 19.9923 16.9559 19.9462 17.3324 19.9467C17.4193 19.9471 17.5063 19.9475 17.5958 19.9478C17.78 19.9484 17.9642 19.9486 18.1483 19.9486C18.4293 19.9488 18.7103 19.9508 18.9913 19.9528C19.1703 19.9532 19.3493 19.9534 19.5282 19.9535C19.6539 19.9546 19.6539 19.9546 19.7821 19.9558C20.2307 19.9539 20.5811 19.9151 20.9844 19.7131C20.9978 19.1397 21.0075 18.5665 21.014 17.993C21.0167 17.798 21.0204 17.6031 21.0251 17.4081C21.0316 17.1275 21.0347 16.847 21.037 16.5662C21.0398 16.4794 21.0426 16.3927 21.0455 16.3032C21.0457 15.8665 21.0161 15.6651 20.7673 15.2931C20.3595 15.0217 20.0296 15.0046 19.5556 15.0149C19.471 15.0149 19.3864 15.0149 19.2993 15.0149C19.1212 15.0155 18.9431 15.0174 18.7651 15.0205C18.4923 15.025 18.2198 15.0249 17.947 15.0242C17.7737 15.0253 17.6004 15.0267 17.4271 15.0284C17.3049 15.0284 17.3049 15.0284 17.1801 15.0285C16.7538 15.0312 16.7538 15.0312 16.3824 15.2158ZM36.074 15.2931C35.7805 15.7321 35.7877 16.05 35.8043 16.5662C35.805 16.6564 35.8058 16.7465 35.8066 16.8394C35.8096 17.1261 35.8163 17.4125 35.8232 17.6991C35.8259 17.894 35.8284 18.0888 35.8306 18.2836C35.8365 18.7602 35.8458 19.2366 35.8569 19.7131C36.3372 19.9536 36.7875 19.9583 37.3131 19.9535C37.4439 19.9534 37.4439 19.9534 37.5774 19.9533C37.761 19.953 37.9446 19.9522 38.1282 19.9508C38.4099 19.9488 38.6915 19.9486 38.9732 19.9486C39.1518 19.9481 39.3303 19.9475 39.5089 19.9467C39.5933 19.9466 39.6777 19.9465 39.7647 19.9464C40.1958 19.9519 40.1958 19.9519 40.5988 19.8209C40.6068 19.1975 40.6127 18.5742 40.6166 17.9508C40.6182 17.7387 40.6204 17.5266 40.6232 17.3145C40.6271 17.0098 40.629 16.7051 40.6304 16.4004C40.6321 16.3054 40.6337 16.2104 40.6355 16.1126C40.6355 15.9799 40.6355 15.9799 40.6355 15.8446C40.6362 15.7668 40.637 15.689 40.6377 15.6089C40.5865 15.3368 40.4956 15.2431 40.2755 15.0789C39.9802 15.0441 39.7098 15.0285 39.4142 15.0284C39.3298 15.0276 39.2454 15.0268 39.1585 15.0259C38.98 15.0247 38.8016 15.0244 38.6231 15.0249C38.3508 15.025 38.0787 15.0205 37.8065 15.0158C37.6329 15.0152 37.4593 15.0149 37.2857 15.0149C37.2046 15.0132 37.1236 15.0114 37.04 15.0096C36.637 15.0149 36.4114 15.0685 36.074 15.2931Z" fill="black"/>
<path id="Vector_2" d="M17.4282 35.0109C17.516 35.0116 17.6038 35.0123 17.6943 35.013C17.9849 35.0155 18.2755 35.0188 18.5661 35.0222C18.7678 35.0242 18.9695 35.0263 19.1713 35.0283C19.5942 35.0327 20.0171 35.0376 20.44 35.0428C20.9825 35.0493 21.525 35.0544 22.0676 35.059C22.4842 35.0628 22.9007 35.0676 23.3173 35.0726C23.5174 35.0749 23.7175 35.0768 23.9175 35.0784C24.197 35.0807 24.4764 35.0844 24.7558 35.0884C24.8388 35.0888 24.9217 35.0892 25.0072 35.0896C25.4117 35.0968 25.5967 35.11 25.9417 35.34C26.0745 35.7383 26.069 36.1097 26.0714 36.5246C26.072 36.609 26.0726 36.6934 26.0732 36.7803C26.0742 36.9588 26.0749 37.1373 26.0754 37.3157C26.0764 37.588 26.0797 37.8601 26.0831 38.1324C26.0838 38.306 26.0844 38.4796 26.0848 38.6531C26.0862 38.7342 26.0875 38.8153 26.0889 38.8988C26.0866 39.4318 26.0023 39.8058 25.6184 40.1897C25.3282 40.2023 25.0408 40.2078 24.7506 40.2088C24.6596 40.2095 24.5687 40.2102 24.475 40.2109C24.1727 40.2131 23.8705 40.2143 23.5682 40.2154C23.4138 40.2161 23.4138 40.2161 23.2563 40.2167C22.7115 40.219 22.1668 40.2205 21.6221 40.2215C21.0583 40.2227 20.4945 40.2264 19.9307 40.2307C19.4982 40.2335 19.0657 40.2344 18.6332 40.2348C18.4253 40.2353 18.2175 40.2366 18.0096 40.2386C17.719 40.2412 17.4285 40.2411 17.138 40.2404C17.0084 40.2424 17.0084 40.2424 16.8763 40.2446C16.2978 40.2391 16.2978 40.2391 16.0272 39.9985C15.9149 39.7497 15.878 39.5905 15.8771 39.3191C15.8761 39.2339 15.8751 39.1486 15.874 39.0608C15.8747 38.9698 15.8753 38.8787 15.876 38.7849C15.8757 38.6906 15.8754 38.5963 15.8751 38.4991C15.8748 38.3001 15.8754 38.1011 15.8768 37.9021C15.8785 37.5972 15.8768 37.2924 15.8747 36.9875C15.875 36.7941 15.8754 36.6006 15.876 36.4072C15.8754 36.3159 15.8747 36.2246 15.874 36.1306C15.8817 35.4948 15.8817 35.4948 16.063 35.2663C16.4718 34.9429 16.9352 35.0047 17.4282 35.0109Z" fill="black"/>
<path id="Vector_3" d="M40.7068 35.1245C40.7123 35.8112 40.716 36.4979 40.7186 37.1847C40.7197 37.4184 40.7212 37.6522 40.7231 37.8859C40.7257 38.2214 40.7269 38.5568 40.7279 38.8923C40.729 38.9972 40.7301 39.1022 40.7312 39.2104C40.7312 39.3074 40.7313 39.4045 40.7313 39.5045C40.7318 39.5902 40.7322 39.6759 40.7327 39.7642C40.7068 39.9742 40.7068 39.9742 40.4913 40.1897C40.1976 40.2117 39.9149 40.2203 39.6211 40.2193C39.5312 40.2199 39.4413 40.2204 39.3487 40.221C39.0505 40.2225 38.7523 40.2224 38.4541 40.2222C38.2474 40.2226 38.0407 40.223 37.834 40.2236C37.4003 40.2244 36.9666 40.2243 36.5329 40.2238C35.9765 40.2231 35.4201 40.225 34.8636 40.2275C34.4366 40.229 34.0096 40.2291 33.5825 40.2288C33.3773 40.2289 33.1722 40.2294 32.967 40.2305C32.6803 40.2318 32.3937 40.2311 32.107 40.2299C31.9793 40.2311 31.9793 40.2311 31.8489 40.2324C31.2771 40.2268 31.2771 40.2268 31.0127 40.0458C30.7361 39.6073 30.7744 39.1493 30.7737 38.6506C30.7734 38.5633 30.773 38.4761 30.7726 38.3861C30.7721 38.2017 30.7718 38.0173 30.7719 37.8328C30.7716 37.5504 30.7697 37.268 30.7676 36.9856C30.7673 36.8064 30.7671 36.6272 30.767 36.4481C30.7658 36.3212 30.7658 36.3212 30.7646 36.1919C30.7664 35.7785 30.7725 35.5845 31.0074 35.2323C31.2378 35.1893 31.2378 35.1893 31.5277 35.1857C31.6914 35.1825 31.6914 35.1825 31.8583 35.1792C31.9776 35.1785 32.0969 35.1778 32.2198 35.1771C32.3437 35.1752 32.4676 35.1732 32.5953 35.1712C33 35.1653 33.4047 35.1617 33.8094 35.1582C34.0852 35.1546 34.3611 35.151 34.6369 35.1472C36.6601 35.1214 38.6835 35.1101 40.7068 35.1245Z" fill="black"/>
<path id="Vector_4" d="M42.0307 0.25036C42.1276 0.250356 42.2246 0.250351 42.3245 0.250347C42.529 0.250924 42.7336 0.252818 42.9381 0.255938C43.252 0.260459 43.5657 0.260363 43.8796 0.259622C44.0783 0.260752 44.277 0.262146 44.4757 0.263831C44.5699 0.263853 44.6641 0.263875 44.7611 0.263897C45.025 0.269094 45.025 0.269094 45.4482 0.314349C45.7276 0.733416 45.6967 1.08731 45.6962 1.57351C45.6966 1.66532 45.6971 1.75713 45.6976 1.85173C45.6982 2.04586 45.6982 2.23999 45.6978 2.43413C45.6974 2.73099 45.6999 3.02774 45.7027 3.32458C45.7029 3.51325 45.703 3.70192 45.7029 3.89059C45.7039 3.97929 45.7049 4.06799 45.7059 4.15938C45.7031 4.50931 45.6854 4.78411 45.5598 5.11257C45.1998 5.37389 44.8047 5.32874 44.3772 5.32151C44.2828 5.32141 44.1883 5.32131 44.091 5.32121C43.8913 5.32056 43.6916 5.31886 43.492 5.3162C43.1861 5.31227 42.8804 5.31178 42.5746 5.31183C42.3806 5.31077 42.1867 5.30951 41.9928 5.30804C41.9012 5.3078 41.8095 5.30756 41.7152 5.30731C41.0671 5.29686 41.0671 5.29686 40.7063 5.05629C40.5736 4.65844 40.5769 4.28631 40.5728 3.87165C40.5715 3.74508 40.5715 3.74508 40.5702 3.61595C40.5687 3.43749 40.5675 3.25903 40.5667 3.08057C40.5648 2.80829 40.5601 2.53616 40.5553 2.26392C40.5542 2.09033 40.5533 1.91675 40.5526 1.74316C40.5507 1.66209 40.5488 1.58102 40.5469 1.4975C40.5484 1.12794 40.5924 0.86564 40.7543 0.532155C41.1645 0.20755 41.5213 0.24076 42.0307 0.25036Z" fill="black"/>
<path id="Vector_5" d="M11.3925 0.314333C11.7175 0.281575 12.02 0.269083 12.3452 0.271392C12.4398 0.271083 12.5344 0.270774 12.6319 0.270455C12.8322 0.270235 13.0325 0.270833 13.2328 0.272182C13.5396 0.273909 13.8463 0.2722 14.1531 0.270129C14.3475 0.270343 14.5419 0.270757 14.7364 0.271392C14.8283 0.270738 14.9203 0.270083 15.015 0.269409C15.6529 0.277005 15.6529 0.277005 15.8892 0.451898C16.1351 0.784201 16.0725 1.20266 16.0696 1.60085C16.0699 1.69531 16.0702 1.78977 16.0706 1.8871C16.0708 2.08676 16.0702 2.28642 16.0688 2.48607C16.0671 2.79194 16.0688 3.09764 16.0709 3.4035C16.0707 3.59743 16.0703 3.79137 16.0696 3.9853C16.0706 4.12272 16.0706 4.12272 16.0716 4.26291C16.064 4.89806 16.064 4.89806 15.8892 5.13425C15.5561 5.38081 15.1356 5.3176 14.7364 5.31476C14.6417 5.31507 14.5469 5.31538 14.4494 5.3157C14.2492 5.31592 14.0491 5.31532 13.849 5.31397C13.542 5.31224 13.2351 5.31396 12.928 5.31602C12.7338 5.31581 12.5395 5.3154 12.3452 5.31476C12.2069 5.31574 12.2069 5.31574 12.0659 5.31674C11.8076 5.31365 11.8076 5.31365 11.3925 5.27182C11.1088 4.84619 11.146 4.47915 11.1483 3.9853C11.1481 3.89084 11.1479 3.79638 11.1477 3.69906C11.1476 3.4994 11.148 3.29974 11.1489 3.10008C11.15 2.79425 11.1489 2.48848 11.1475 2.18265C11.1476 1.98872 11.1479 1.79479 11.1483 1.60085C11.1479 1.50924 11.1475 1.41763 11.147 1.32324C11.1522 0.674818 11.1522 0.674818 11.3925 0.314333Z" fill="black"/>
</g>
</g>
</svg>
