<svg width="40" height="40" viewBox="0 0 40 40" fill="none" xmlns="http://www.w3.org/2000/svg">
<g id="disk-filled-icon" clip-path="url(#clip0_55_382)">
<path id="Vector" d="M11.7188 0C17.1844 0 22.65 0 28.2812 0C28.2812 0.773438 28.2812 1.54688 28.2812 2.34375C29.8281 2.34375 31.375 2.34375 32.9688 2.34375C32.9688 3.11719 32.9688 3.89062 32.9688 4.6875C33.7422 4.6875 34.5156 4.6875 35.3125 4.6875C35.3125 5.46094 35.3125 6.23438 35.3125 7.03125C36.0859 7.03125 36.8594 7.03125 37.6562 7.03125C37.6562 8.57812 37.6562 10.125 37.6562 11.7188C38.4297 11.7188 39.2031 11.7188 40 11.7188C40 17.1844 40 22.65 40 28.2812C39.2266 28.2812 38.4531 28.2812 37.6562 28.2812C37.6562 29.8281 37.6562 31.375 37.6562 32.9688C36.8828 32.9688 36.1094 32.9688 35.3125 32.9688C35.3125 33.7422 35.3125 34.5156 35.3125 35.3125C34.5391 35.3125 33.7656 35.3125 32.9688 35.3125C32.9688 36.0859 32.9688 36.8594 32.9688 37.6562C31.4219 37.6562 29.875 37.6562 28.2812 37.6562C28.2812 38.4297 28.2812 39.2031 28.2812 40C22.8156 40 17.35 40 11.7188 40C11.7188 39.2266 11.7188 38.4531 11.7188 37.6562C10.1719 37.6562 8.625 37.6562 7.03125 37.6562C7.03125 36.8828 7.03125 36.1094 7.03125 35.3125C6.25781 35.3125 5.48438 35.3125 4.6875 35.3125C4.6875 34.5391 4.6875 33.7656 4.6875 32.9688C3.91406 32.9688 3.14062 32.9688 2.34375 32.9688C2.34375 31.4219 2.34375 29.875 2.34375 28.2812C1.57031 28.2812 0.796875 28.2812 0 28.2812C0 22.8156 0 17.35 0 11.7188C0.773438 11.7188 1.54688 11.7188 2.34375 11.7188C2.34375 10.1719 2.34375 8.625 2.34375 7.03125C3.11719 7.03125 3.89062 7.03125 4.6875 7.03125C4.6875 6.25781 4.6875 5.48438 4.6875 4.6875C5.46094 4.6875 6.23438 4.6875 7.03125 4.6875C7.03125 3.91406 7.03125 3.14062 7.03125 2.34375C8.57812 2.34375 10.125 2.34375 11.7188 2.34375C11.7188 1.57031 11.7188 0.796875 11.7188 0ZM11.7969 7.10938C11.7969 7.85703 11.7969 8.60469 11.7969 9.375C12.5445 9.375 13.2922 9.375 14.0625 9.375C14.0625 8.62734 14.0625 7.87969 14.0625 7.10938C13.3148 7.10938 12.5672 7.10938 11.7969 7.10938ZM9.45312 9.45312C9.45312 10.2008 9.45312 10.9484 9.45312 11.7188C10.2008 11.7188 10.9484 11.7188 11.7188 11.7188C11.7188 10.9711 11.7188 10.2234 11.7188 9.45312C10.9711 9.45312 10.2234 9.45312 9.45312 9.45312ZM7.10938 11.7969C7.10938 12.5445 7.10938 13.2922 7.10938 14.0625C7.85703 14.0625 8.60469 14.0625 9.375 14.0625C9.375 13.3148 9.375 12.5672 9.375 11.7969C8.62734 11.7969 7.87969 11.7969 7.10938 11.7969ZM16.4844 11.7969C16.4844 12.5445 16.4844 13.2922 16.4844 14.0625C18.8047 14.0625 21.125 14.0625 23.5156 14.0625C23.5156 13.3148 23.5156 12.5672 23.5156 11.7969C21.1953 11.7969 18.875 11.7969 16.4844 11.7969ZM14.1406 14.1406C14.1406 14.8883 14.1406 15.6359 14.1406 16.4062C14.8883 16.4062 15.6359 16.4062 16.4062 16.4062C16.4062 15.6586 16.4062 14.9109 16.4062 14.1406C15.6586 14.1406 14.9109 14.1406 14.1406 14.1406ZM23.5938 14.1406C23.5938 14.8883 23.5938 15.6359 23.5938 16.4062C24.3414 16.4062 25.0891 16.4062 25.8594 16.4062C25.8594 15.6586 25.8594 14.9109 25.8594 14.1406C25.1117 14.1406 24.3641 14.1406 23.5938 14.1406ZM11.7969 16.4844C11.7969 18.8047 11.7969 21.125 11.7969 23.5156C12.5445 23.5156 13.2922 23.5156 14.0625 23.5156C14.0625 21.1953 14.0625 18.875 14.0625 16.4844C13.3148 16.4844 12.5672 16.4844 11.7969 16.4844ZM18.8281 16.4844C18.8281 17.232 18.8281 17.9797 18.8281 18.75C19.6016 18.75 20.375 18.75 21.1719 18.75C21.1719 18.0023 21.1719 17.2547 21.1719 16.4844C20.3984 16.4844 19.625 16.4844 18.8281 16.4844ZM25.9375 16.4844C25.9375 18.8047 25.9375 21.125 25.9375 23.5156C26.6852 23.5156 27.4328 23.5156 28.2031 23.5156C28.2031 21.1953 28.2031 18.875 28.2031 16.4844C27.4555 16.4844 26.7078 16.4844 25.9375 16.4844ZM16.4844 18.8281C16.4844 19.6016 16.4844 20.375 16.4844 21.1719C17.232 21.1719 17.9797 21.1719 18.75 21.1719C18.75 20.3984 18.75 19.625 18.75 18.8281C18.0023 18.8281 17.2547 18.8281 16.4844 18.8281ZM21.25 18.8281C21.25 19.6016 21.25 20.375 21.25 21.1719C21.9977 21.1719 22.7453 21.1719 23.5156 21.1719C23.5156 20.3984 23.5156 19.625 23.5156 18.8281C22.768 18.8281 22.0203 18.8281 21.25 18.8281ZM18.8281 21.25C18.8281 21.9977 18.8281 22.7453 18.8281 23.5156C19.6016 23.5156 20.375 23.5156 21.1719 23.5156C21.1719 22.768 21.1719 22.0203 21.1719 21.25C20.3984 21.25 19.625 21.25 18.8281 21.25ZM14.1406 23.5938C14.1406 24.3414 14.1406 25.0891 14.1406 25.8594C14.8883 25.8594 15.6359 25.8594 16.4062 25.8594C16.4062 25.1117 16.4062 24.3641 16.4062 23.5938C15.6586 23.5938 14.9109 23.5938 14.1406 23.5938ZM23.5938 23.5938C23.5938 24.3414 23.5938 25.0891 23.5938 25.8594C24.3414 25.8594 25.0891 25.8594 25.8594 25.8594C25.8594 25.1117 25.8594 24.3641 25.8594 23.5938C25.1117 23.5938 24.3641 23.5938 23.5938 23.5938ZM16.4844 25.9375C16.4844 26.6852 16.4844 27.4328 16.4844 28.2031C18.8047 28.2031 21.125 28.2031 23.5156 28.2031C23.5156 27.4555 23.5156 26.7078 23.5156 25.9375C21.1953 25.9375 18.875 25.9375 16.4844 25.9375ZM30.625 25.9375C30.625 26.6852 30.625 27.4328 30.625 28.2031C31.3727 28.2031 32.1203 28.2031 32.8906 28.2031C32.8906 27.4555 32.8906 26.7078 32.8906 25.9375C32.143 25.9375 31.3953 25.9375 30.625 25.9375ZM28.2812 28.2812C28.2812 29.0289 28.2812 29.7766 28.2812 30.5469C29.0289 30.5469 29.7766 30.5469 30.5469 30.5469C30.5469 29.7992 30.5469 29.0516 30.5469 28.2812C29.7992 28.2812 29.0516 28.2812 28.2812 28.2812ZM25.9375 30.625C25.9375 31.3727 25.9375 32.1203 25.9375 32.8906C26.6852 32.8906 27.4328 32.8906 28.2031 32.8906C28.2031 32.143 28.2031 31.3953 28.2031 30.625C27.4555 30.625 26.7078 30.625 25.9375 30.625Z" fill="black"/>
</g>
<defs>
<clipPath id="clip0_55_382">
<rect width="40" height="40" fill="white"/>
</clipPath>
</defs>
</svg>
