<svg width="50" height="50" viewBox="0 0 50 50" fill="none" xmlns="http://www.w3.org/2000/svg">
<g clip-path="url(#clip0_61_521)">
<path d="M14.6484 0C21.4805 0 28.3125 0 35.3516 0C35.3516 0.966797 35.3516 1.93359 35.3516 2.92969C37.2852 2.92969 39.2188 2.92969 41.2109 2.92969C41.2109 3.89648 41.2109 4.86328 41.2109 5.85938C42.1777 5.85938 43.1445 5.85938 44.1406 5.85938C44.1406 6.82617 44.1406 7.79297 44.1406 8.78906C45.1074 8.78906 46.0742 8.78906 47.0703 8.78906C47.0703 10.7227 47.0703 12.6562 47.0703 14.6484C48.0371 14.6484 49.0039 14.6484 50 14.6484C50 21.4805 50 28.3125 50 35.3516C49.0332 35.3516 48.0664 35.3516 47.0703 35.3516C47.0703 37.2852 47.0703 39.2188 47.0703 41.2109C46.1035 41.2109 45.1367 41.2109 44.1406 41.2109C44.1406 42.1777 44.1406 43.1445 44.1406 44.1406C43.1738 44.1406 42.207 44.1406 41.2109 44.1406C41.2109 45.1074 41.2109 46.0742 41.2109 47.0703C39.2773 47.0703 37.3438 47.0703 35.3516 47.0703C35.3516 48.0371 35.3516 49.0039 35.3516 50C28.5195 50 21.6875 50 14.6484 50C14.6484 49.0332 14.6484 48.0664 14.6484 47.0703C12.7148 47.0703 10.7812 47.0703 8.78906 47.0703C8.78906 46.1035 8.78906 45.1367 8.78906 44.1406C7.82227 44.1406 6.85547 44.1406 5.85938 44.1406C5.85938 43.1738 5.85938 42.207 5.85938 41.2109C4.89258 41.2109 3.92578 41.2109 2.92969 41.2109C2.92969 39.2773 2.92969 37.3438 2.92969 35.3516C1.96289 35.3516 0.996094 35.3516 0 35.3516C0 28.5195 0 21.6875 0 14.6484C0.966797 14.6484 1.93359 14.6484 2.92969 14.6484C2.92969 12.7148 2.92969 10.7812 2.92969 8.78906C3.89648 8.78906 4.86328 8.78906 5.85938 8.78906C5.85938 7.82227 5.85938 6.85547 5.85938 5.85938C6.82617 5.85938 7.79297 5.85938 8.78906 5.85938C8.78906 4.89258 8.78906 3.92578 8.78906 2.92969C10.7227 2.92969 12.6562 2.92969 14.6484 2.92969C14.6484 1.96289 14.6484 0.996094 14.6484 0ZM14.7461 3.02734C14.7461 3.99414 14.7461 4.96094 14.7461 5.95703C12.8125 5.95703 10.8789 5.95703 8.88672 5.95703C8.88672 6.92383 8.88672 7.89062 8.88672 8.88672C7.91992 8.88672 6.95312 8.88672 5.95703 8.88672C5.95703 10.8203 5.95703 12.7539 5.95703 14.7461C4.99023 14.7461 4.02344 14.7461 3.02734 14.7461C3.02734 21.5137 3.02734 28.2812 3.02734 35.2539C3.99414 35.2539 4.96094 35.2539 5.95703 35.2539C5.95703 37.1875 5.95703 39.1211 5.95703 41.1133C6.92383 41.1133 7.89062 41.1133 8.88672 41.1133C8.88672 42.0801 8.88672 43.0469 8.88672 44.043C10.8203 44.043 12.7539 44.043 14.7461 44.043C14.7461 45.0098 14.7461 45.9766 14.7461 46.9727C21.5137 46.9727 28.2812 46.9727 35.2539 46.9727C35.2539 46.0059 35.2539 45.0391 35.2539 44.043C37.1875 44.043 39.1211 44.043 41.1133 44.043C41.1133 43.0762 41.1133 42.1094 41.1133 41.1133C42.0801 41.1133 43.0469 41.1133 44.043 41.1133C44.043 39.1797 44.043 37.2461 44.043 35.2539C45.0098 35.2539 45.9766 35.2539 46.9727 35.2539C46.9727 28.4863 46.9727 21.7188 46.9727 14.7461C46.0059 14.7461 45.0391 14.7461 44.043 14.7461C44.043 12.8125 44.043 10.8789 44.043 8.88672C43.0762 8.88672 42.1094 8.88672 41.1133 8.88672C41.1133 7.91992 41.1133 6.95312 41.1133 5.95703C39.1797 5.95703 37.2461 5.95703 35.2539 5.95703C35.2539 4.99023 35.2539 4.02344 35.2539 3.02734C28.4863 3.02734 21.7188 3.02734 14.7461 3.02734Z" fill="black"/>
<path d="M20.5078 14.6484C23.4727 14.6484 26.4375 14.6484 29.4922 14.6484C29.4922 15.6152 29.4922 16.582 29.4922 17.5781C30.459 17.5781 31.4258 17.5781 32.4219 17.5781C32.4219 18.5449 32.4219 19.5117 32.4219 20.5078C33.3887 20.5078 34.3555 20.5078 35.3516 20.5078C35.3516 23.4727 35.3516 26.4375 35.3516 29.4922C34.3848 29.4922 33.418 29.4922 32.4219 29.4922C32.4219 30.459 32.4219 31.4258 32.4219 32.4219C31.4551 32.4219 30.4883 32.4219 29.4922 32.4219C29.4922 33.3887 29.4922 34.3555 29.4922 35.3516C26.5273 35.3516 23.5625 35.3516 20.5078 35.3516C20.5078 34.3848 20.5078 33.418 20.5078 32.4219C19.541 32.4219 18.5742 32.4219 17.5781 32.4219C17.5781 31.4551 17.5781 30.4883 17.5781 29.4922C16.6113 29.4922 15.6445 29.4922 14.6484 29.4922C14.6484 26.5273 14.6484 23.5625 14.6484 20.5078C15.6152 20.5078 16.582 20.5078 17.5781 20.5078C17.5781 19.541 17.5781 18.5742 17.5781 17.5781C18.5449 17.5781 19.5117 17.5781 20.5078 17.5781C20.5078 16.6113 20.5078 15.6445 20.5078 14.6484ZM20.6055 17.6758C20.6055 18.6426 20.6055 19.6094 20.6055 20.6055C19.6387 20.6055 18.6719 20.6055 17.6758 20.6055C17.6758 23.5059 17.6758 26.4062 17.6758 29.3945C18.6426 29.3945 19.6094 29.3945 20.6055 29.3945C20.6055 30.3613 20.6055 31.3281 20.6055 32.3242C23.5059 32.3242 26.4062 32.3242 29.3945 32.3242C29.3945 31.3574 29.3945 30.3906 29.3945 29.3945C30.3613 29.3945 31.3281 29.3945 32.3242 29.3945C32.3242 26.4941 32.3242 23.5938 32.3242 20.6055C31.3574 20.6055 30.3906 20.6055 29.3945 20.6055C29.3945 19.6387 29.3945 18.6719 29.3945 17.6758C26.4941 17.6758 23.5938 17.6758 20.6055 17.6758Z" fill="black"/>
<path d="M23.4375 20.5078C24.4688 20.5078 25.5 20.5078 26.5625 20.5078C26.5625 21.4746 26.5625 22.4414 26.5625 23.4375C27.5293 23.4375 28.4961 23.4375 29.4922 23.4375C29.4922 24.4688 29.4922 25.5 29.4922 26.5625C28.5254 26.5625 27.5586 26.5625 26.5625 26.5625C26.5625 27.5293 26.5625 28.4961 26.5625 29.4922C25.5312 29.4922 24.5 29.4922 23.4375 29.4922C23.4375 28.5254 23.4375 27.5586 23.4375 26.5625C22.4707 26.5625 21.5039 26.5625 20.5078 26.5625C20.5078 25.5312 20.5078 24.5 20.5078 23.4375C21.4746 23.4375 22.4414 23.4375 23.4375 23.4375C23.4375 22.4707 23.4375 21.5039 23.4375 20.5078Z" fill="black"/>
<path d="M38.1836 32.3242C39.1826 32.3242 40.1816 32.3242 41.2109 32.3242C41.2109 33.3232 41.2109 34.3223 41.2109 35.3516C40.2441 35.3516 39.2773 35.3516 38.2812 35.3516C38.2812 36.3184 38.2812 37.2852 38.2812 38.2812C37.3145 38.2812 36.3477 38.2812 35.3516 38.2812C35.3516 39.248 35.3516 40.2148 35.3516 41.2109C34.3525 41.2109 33.3535 41.2109 32.3242 41.2109C32.3242 40.2119 32.3242 39.2129 32.3242 38.1836C33.291 38.1836 34.2578 38.1836 35.2539 38.1836C35.2539 37.2168 35.2539 36.25 35.2539 35.2539C36.2207 35.2539 37.1875 35.2539 38.1836 35.2539C38.1836 34.2871 38.1836 33.3203 38.1836 32.3242Z" fill="black"/>
<path d="M14.6484 8.78906C15.6475 8.78906 16.6465 8.78906 17.6758 8.78906C17.6758 9.78809 17.6758 10.7871 17.6758 11.8164C16.709 11.8164 15.7422 11.8164 14.7461 11.8164C14.7461 12.7832 14.7461 13.75 14.7461 14.7461C13.7793 14.7461 12.8125 14.7461 11.8164 14.7461C11.8164 15.7129 11.8164 16.6797 11.8164 17.6758C10.8174 17.6758 9.81836 17.6758 8.78906 17.6758C8.78906 16.6768 8.78906 15.6777 8.78906 14.6484C9.75586 14.6484 10.7227 14.6484 11.7188 14.6484C11.7188 13.6816 11.7188 12.7148 11.7188 11.7188C12.6855 11.7188 13.6523 11.7188 14.6484 11.7188C14.6484 10.752 14.6484 9.78516 14.6484 8.78906Z" fill="black"/>
</g>
<defs>
<clipPath id="clip0_61_521">
<rect width="50" height="50" fill="white"/>
</clipPath>
</defs>
</svg>
