<svg width="44" height="40" viewBox="0 0 44 40" fill="none" xmlns="http://www.w3.org/2000/svg">
<g id="heart-icon-png" clip-path="url(#clip0_33_684)">
<g id="Group 2">
<path id="Vector" d="M5.75758 0C8.62424 0 11.4909 0 14.4444 0C14.4444 0.933333 14.4444 1.86667 14.4444 2.82828C15.3778 2.82828 16.3111 2.82828 17.2727 2.82828C17.2727 3.76162 17.2727 4.69495 17.2727 5.65657C18.2061 5.65657 19.1394 5.65657 20.101 5.65657C20.101 6.5899 20.101 7.52323 20.101 8.48485C21.0343 8.48485 21.9677 8.48485 22.9293 8.48485C22.9293 7.55152 22.9293 6.61818 22.9293 5.65657C23.8626 5.65657 24.796 5.65657 25.7576 5.65657C25.7576 4.72323 25.7576 3.7899 25.7576 2.82828C26.6909 2.82828 27.6242 2.82828 28.5859 2.82828C28.5859 1.89495 28.5859 0.961616 28.5859 0C31.4525 0 34.3192 0 37.2727 0C37.2727 0.933333 37.2727 1.86667 37.2727 2.82828C38.2061 2.82828 39.1394 2.82828 40.101 2.82828C40.101 3.76162 40.101 4.69495 40.101 5.65657C41.0677 5.65657 42.0343 5.65657 43.0303 5.65657C43.0303 9.45656 43.0303 13.2566 43.0303 17.1717C42.0636 17.1717 41.097 17.1717 40.101 17.1717C40.101 19.0717 40.101 20.9717 40.101 22.9293C39.1677 22.9293 38.2343 22.9293 37.2727 22.9293C37.2727 23.8626 37.2727 24.796 37.2727 25.7576C36.3394 25.7576 35.4061 25.7576 34.4444 25.7576C34.4444 26.6909 34.4444 27.6242 34.4444 28.5859C33.4778 28.5859 32.5111 28.5859 31.5152 28.5859C31.5152 29.5525 31.5152 30.5192 31.5152 31.5152C30.5818 31.5152 29.6485 31.5152 28.6869 31.5152C28.6869 32.4485 28.6869 33.3818 28.6869 34.3434C27.7535 34.3434 26.8202 34.3434 25.8586 34.3434C25.8586 35.2768 25.8586 36.2101 25.8586 37.1717C24.9253 37.1717 23.9919 37.1717 23.0303 37.1717C23.0303 38.105 23.0303 39.0384 23.0303 40C22.0303 40 21.0303 40 20 40C20 39.0667 20 38.1333 20 37.1717C19.0667 37.1717 18.1333 37.1717 17.1717 37.1717C17.1717 36.2384 17.1717 35.305 17.1717 34.3434C16.2384 34.3434 15.3051 34.3434 14.3434 34.3434C14.3434 33.4101 14.3434 32.4768 14.3434 31.5152C13.4101 31.5152 12.4768 31.5152 11.5152 31.5152C11.5152 30.5485 11.5152 29.5818 11.5152 28.5859C10.5485 28.5859 9.58182 28.5859 8.58586 28.5859C8.58586 27.6525 8.58586 26.7192 8.58586 25.7576C7.65253 25.7576 6.71919 25.7576 5.75758 25.7576C5.75758 24.8242 5.75758 23.8909 5.75758 22.9293C4.82424 22.9293 3.89091 22.9293 2.92929 22.9293C2.92929 21.0293 2.92929 19.1293 2.92929 17.1717C1.96263 17.1717 0.99596 17.1717 0 17.1717C0 13.3717 0 9.57172 0 5.65657C0.966667 5.65657 1.93333 5.65657 2.92929 5.65657C2.92929 4.72323 2.92929 3.7899 2.92929 2.82828C3.86263 2.82828 4.79596 2.82828 5.75758 2.82828C5.75758 1.89495 5.75758 0.961616 5.75758 0Z" fill="#FE3545"/>
<path id="Vector_2" d="M5.75732 0C8.62399 0 11.4907 0 14.4442 0C14.4442 0.933333 14.4442 1.86667 14.4442 2.82828C15.3775 2.82828 16.3109 2.82828 17.2725 2.82828C17.2725 3.76162 17.2725 4.69495 17.2725 5.65657C18.2058 5.65657 19.1391 5.65657 20.1008 5.65657C20.1008 6.5899 20.1008 7.52323 20.1008 8.48485C21.0341 8.48485 21.9674 8.48485 22.929 8.48485C22.929 7.55152 22.929 6.61818 22.929 5.65657C23.8624 5.65657 24.7957 5.65657 25.7573 5.65657C25.7573 4.72323 25.7573 3.7899 25.7573 2.82828C26.6907 2.82828 27.624 2.82828 28.5856 2.82828C28.5856 1.89495 28.5856 0.961616 28.5856 0C31.4523 0 34.3189 0 37.2725 0C37.2725 0.933333 37.2725 1.86667 37.2725 2.82828C34.4391 2.82828 31.6058 2.82828 28.6866 2.82828C28.6866 3.79495 28.6866 4.76162 28.6866 5.75758C27.7533 5.75758 26.82 5.75758 25.8583 5.75758C25.8583 6.69091 25.8583 7.62424 25.8583 8.58586C24.8917 8.58586 23.925 8.58586 22.929 8.58586C22.929 9.51919 22.929 10.4525 22.929 11.4141C21.9957 11.4141 21.0624 11.4141 20.1008 11.4141C20.1008 10.4808 20.1008 9.54747 20.1008 8.58586C19.1341 8.58586 18.1674 8.58586 17.1715 8.58586C17.1715 7.65253 17.1715 6.71919 17.1715 5.75758C16.2381 5.75758 15.3048 5.75758 14.3432 5.75758C14.3432 4.79091 14.3432 3.82424 14.3432 2.82828C11.5098 2.82828 8.67652 2.82828 5.75732 2.82828C5.75732 1.89495 5.75732 0.961616 5.75732 0Z" fill="#010000"/>
<path id="Vector_3" d="M11.5151 28.5858C12.4485 28.5858 13.3818 28.5858 14.3434 28.5858C14.3434 29.5191 14.3434 30.4525 14.3434 31.4141C15.3101 31.4141 16.2768 31.4141 17.2727 31.4141C17.2727 32.3474 17.2727 33.2808 17.2727 34.2424C18.206 34.2424 19.1394 34.2424 20.101 34.2424C20.101 35.209 20.101 36.1757 20.101 37.1717C21.0343 37.1717 21.9677 37.1717 22.9293 37.1717C22.9293 36.205 22.9293 35.2383 22.9293 34.2424C23.8626 34.2424 24.7959 34.2424 25.7576 34.2424C25.7576 33.309 25.7576 32.3757 25.7576 31.4141C26.7242 31.4141 27.6909 31.4141 28.6869 31.4141C28.6869 30.4808 28.6869 29.5474 28.6869 28.5858C29.6202 28.5858 30.5535 28.5858 31.5151 28.5858C31.5151 29.5525 31.5151 30.5191 31.5151 31.5151C30.5818 31.5151 29.6485 31.5151 28.6869 31.5151C28.6869 32.4484 28.6869 33.3818 28.6869 34.3434C27.7535 34.3434 26.8202 34.3434 25.8586 34.3434C25.8586 35.2767 25.8586 36.2101 25.8586 37.1717C24.9252 37.1717 23.9919 37.1717 23.0303 37.1717C23.0303 38.105 23.0303 39.0383 23.0303 40C22.0303 40 21.0303 40 20 40C20 39.0666 20 38.1333 20 37.1717C19.0667 37.1717 18.1333 37.1717 17.1717 37.1717C17.1717 36.2383 17.1717 35.305 17.1717 34.3434C16.2384 34.3434 15.305 34.3434 14.3434 34.3434C14.3434 33.4101 14.3434 32.4767 14.3434 31.5151C13.4101 31.5151 12.4768 31.5151 11.5151 31.5151C11.5151 30.5484 11.5151 29.5818 11.5151 28.5858Z" fill="#020000"/>
<path id="Vector_4" d="M40.1011 5.65662C41.0677 5.65662 42.0344 5.65662 43.0304 5.65662C43.0304 9.45662 43.0304 13.2566 43.0304 17.1718C42.0637 17.1718 41.097 17.1718 40.1011 17.1718C40.1011 13.3718 40.1011 9.57177 40.1011 5.65662Z" fill="black"/>
<path id="Vector_5" d="M0 5.65662C0.966667 5.65662 1.93333 5.65662 2.92929 5.65662C2.92929 9.45662 2.92929 13.2566 2.92929 17.1718C1.96263 17.1718 0.99596 17.1718 0 17.1718C0 13.3718 0 9.57177 0 5.65662Z" fill="black"/>
<path id="Vector_6" d="M37.2727 17.1718C38.206 17.1718 39.1394 17.1718 40.101 17.1718C40.101 19.0718 40.101 20.9718 40.101 22.9293C39.1677 22.9293 38.2343 22.9293 37.2727 22.9293C37.2727 23.8627 37.2727 24.796 37.2727 25.7576C36.3394 25.7576 35.406 25.7576 34.4444 25.7576C34.4444 26.6909 34.4444 27.6243 34.4444 28.5859C33.4778 28.5859 32.5111 28.5859 31.5151 28.5859C31.5151 27.6526 31.5151 26.7192 31.5151 25.7576C32.4485 25.7576 33.3818 25.7576 34.3434 25.7576C34.3434 24.7909 34.3434 23.8243 34.3434 22.8283C35.3101 22.8283 36.2768 22.8283 37.2727 22.8283C37.2727 20.9617 37.2727 19.095 37.2727 17.1718Z" fill="#010000"/>
<path id="Vector_7" d="M2.9292 17.1718C3.86253 17.1718 4.79587 17.1718 5.75748 17.1718C5.75748 19.0384 5.75748 20.9051 5.75748 22.8283C6.72415 22.8283 7.69082 22.8283 8.68677 22.8283C8.68677 23.795 8.68677 24.7617 8.68677 25.7576C9.62011 25.7576 10.5534 25.7576 11.5151 25.7576C11.5151 26.6909 11.5151 27.6243 11.5151 28.5859C10.5484 28.5859 9.58172 28.5859 8.58576 28.5859C8.58576 27.6526 8.58576 26.7192 8.58576 25.7576C7.65243 25.7576 6.7191 25.7576 5.75748 25.7576C5.75748 24.8243 5.75748 23.8909 5.75748 22.9293C4.82415 22.9293 3.89082 22.9293 2.9292 22.9293C2.9292 21.0293 2.9292 19.1293 2.9292 17.1718Z" fill="#010000"/>
<path id="Vector_8" d="M5.75732 5.65662C7.65732 5.65662 9.55732 5.65662 11.5149 5.65662C11.5149 6.62328 11.5149 7.58995 11.5149 8.58591C10.5816 8.58591 9.64823 8.58591 8.68662 8.58591C8.68662 9.51924 8.68662 10.4526 8.68662 11.4142C7.71995 11.4142 6.75328 11.4142 5.75732 11.4142C5.75732 9.51419 5.75732 7.61419 5.75732 5.65662Z" fill="#FEFAFB"/>
<path id="Vector_9" d="M37.2729 2.82825C38.2063 2.82825 39.1396 2.82825 40.1012 2.82825C40.1012 3.76158 40.1012 4.69491 40.1012 5.65653C39.1679 5.65653 38.2346 5.65653 37.2729 5.65653C37.2729 4.7232 37.2729 3.78986 37.2729 2.82825Z" fill="black"/>
<path id="Vector_10" d="M2.9292 2.82825C3.86253 2.82825 4.79587 2.82825 5.75748 2.82825C5.75748 3.76158 5.75748 4.69491 5.75748 5.65653C4.82415 5.65653 3.89082 5.65653 2.9292 5.65653C2.9292 4.7232 2.9292 3.78986 2.9292 2.82825Z" fill="black"/>
</g>
</g>
<defs>
<clipPath id="clip0_33_684">
<rect width="44" height="40" fill="white"/>
</clipPath>
</defs>
</svg>
