<svg width="44" height="40" viewBox="0 0 44 40" fill="none" xmlns="http://www.w3.org/2000/svg">
<g id="home-icon" clip-path="url(#clip0_33_682)">
<path id="Vector" d="M18.1111 0C20.5311 0 22.9511 0 25.4444 0C25.4444 1.21 25.4444 2.42 25.4444 3.66667C26.6544 3.66667 27.8644 3.66667 29.1111 3.66667C29.1111 4.84 29.1111 6.01333 29.1111 7.22222C30.2844 7.22222 31.4578 7.22222 32.6667 7.22222C32.6667 8.43222 32.6667 9.64222 32.6667 10.8889C33.8767 10.8889 35.0867 10.8889 36.3333 10.8889C36.3333 12.0989 36.3333 13.3089 36.3333 14.5556C37.5433 14.5556 38.7533 14.5556 40 14.5556C40 15.7289 40 16.9022 40 18.1111C41.1733 18.1111 42.3467 18.1111 43.5556 18.1111C43.5556 19.3578 43.5556 20.6044 43.5556 21.8889C41.1722 21.8889 38.7889 21.8889 36.3333 21.8889C36.3333 27.8656 36.3333 33.8422 36.3333 40C32.7033 40 29.0733 40 25.3333 40C25.3333 35.1967 25.3333 30.3933 25.3333 25.4444C22.9867 25.4444 20.64 25.4444 18.2222 25.4444C18.2222 30.2478 18.2222 35.0511 18.2222 40C14.5922 40 10.9622 40 7.22222 40C7.22222 34.0233 7.22222 28.0467 7.22222 21.8889C4.83889 21.8889 2.45556 21.8889 0 21.8889C0 20.6422 0 19.3956 0 18.1111C1.17333 18.1111 2.34667 18.1111 3.55556 18.1111C3.55556 16.9378 3.55556 15.7644 3.55556 14.5556C4.76556 14.5556 5.97556 14.5556 7.22222 14.5556C7.22222 13.3456 7.22222 12.1356 7.22222 10.8889C8.43222 10.8889 9.64222 10.8889 10.8889 10.8889C10.8889 9.67889 10.8889 8.46889 10.8889 7.22222C12.0622 7.22222 13.2356 7.22222 14.4444 7.22222C14.4444 6.04889 14.4444 4.87556 14.4444 3.66667C15.6544 3.66667 16.8644 3.66667 18.1111 3.66667C18.1111 2.45667 18.1111 1.24667 18.1111 0ZM18.2222 3.77778C18.2222 4.95111 18.2222 6.12444 18.2222 7.33333C17.0122 7.33333 15.8022 7.33333 14.5556 7.33333C14.5556 8.54333 14.5556 9.75333 14.5556 11C13.3822 11 12.2089 11 11 11C11 12.21 11 13.42 11 14.6667C9.79 14.6667 8.58 14.6667 7.33333 14.6667C7.33333 17.0133 7.33333 19.36 7.33333 21.7778C8.54333 21.7778 9.75333 21.7778 11 21.7778C11 26.5444 11 31.3111 11 36.2222C12.1367 36.2222 13.2733 36.2222 14.4444 36.2222C14.4444 32.6289 14.4444 29.0356 14.4444 25.3333C15.6544 25.3333 16.8644 25.3333 18.1111 25.3333C18.1111 24.16 18.1111 22.9867 18.1111 21.7778C20.5311 21.7778 22.9511 21.7778 25.4444 21.7778C25.4444 22.9511 25.4444 24.1244 25.4444 25.3333C26.6544 25.3333 27.8644 25.3333 29.1111 25.3333C29.1111 28.9267 29.1111 32.52 29.1111 36.2222C30.2478 36.2222 31.3844 36.2222 32.5556 36.2222C32.5556 31.4556 32.5556 26.6889 32.5556 21.7778C33.7656 21.7778 34.9756 21.7778 36.2222 21.7778C36.2222 19.4311 36.2222 17.0844 36.2222 14.6667C35.0122 14.6667 33.8022 14.6667 32.5556 14.6667C32.5556 13.4567 32.5556 12.2467 32.5556 11C31.3822 11 30.2089 11 29 11C29 9.79 29 8.58 29 7.33333C27.79 7.33333 26.58 7.33333 25.3333 7.33333C25.3333 6.16 25.3333 4.98667 25.3333 3.77778C22.9867 3.77778 20.64 3.77778 18.2222 3.77778Z" fill="black"/>
</g>
<defs>
<clipPath id="clip0_33_682">
<rect width="44" height="40" fill="white"/>
</clipPath>
</defs>
</svg>
