<svg width="40" height="40" viewBox="0 0 40 40" fill="none" xmlns="http://www.w3.org/2000/svg">
<g id="light-mode-icon" clip-path="url(#clip0_33_683)">
<path id="Vector" d="M18.75 0C19.575 0 20.4 0 21.25 0C21.25 1.54688 21.25 3.09375 21.25 4.6875C22.0234 4.6875 22.7969 4.6875 23.5938 4.6875C23.5938 5.46094 23.5938 6.23438 23.5938 7.03125C25.1406 7.03125 26.6875 7.03125 28.2812 7.03125C28.2812 7.80469 28.2812 8.57812 28.2812 9.375C29.0289 9.375 29.7766 9.375 30.5469 9.375C30.5469 8.60156 30.5469 7.82812 30.5469 7.03125C31.3203 7.03125 32.0938 7.03125 32.8906 7.03125C32.8906 6.25781 32.8906 5.48438 32.8906 4.6875C33.6898 4.6875 34.4891 4.6875 35.3125 4.6875C35.3125 5.48672 35.3125 6.28594 35.3125 7.10938C34.5391 7.10938 33.7656 7.10938 32.9688 7.10938C32.9688 7.88281 32.9688 8.65625 32.9688 9.45312C32.1953 9.45312 31.4219 9.45312 30.625 9.45312C30.625 10.2008 30.625 10.9484 30.625 11.7188C31.3984 11.7188 32.1719 11.7188 32.9688 11.7188C32.9688 13.2656 32.9688 14.8125 32.9688 16.4062C33.7422 16.4062 34.5156 16.4062 35.3125 16.4062C35.3125 17.1797 35.3125 17.9531 35.3125 18.75C36.8594 18.75 38.4062 18.75 40 18.75C40 19.575 40 20.4 40 21.25C38.4531 21.25 36.9062 21.25 35.3125 21.25C35.3125 22.0234 35.3125 22.7969 35.3125 23.5938C34.5391 23.5938 33.7656 23.5938 32.9688 23.5938C32.9688 25.1406 32.9688 26.6875 32.9688 28.2812C32.1953 28.2812 31.4219 28.2812 30.625 28.2812C30.625 29.0289 30.625 29.7766 30.625 30.5469C31.3984 30.5469 32.1719 30.5469 32.9688 30.5469C32.9688 31.3203 32.9688 32.0938 32.9688 32.8906C33.7422 32.8906 34.5156 32.8906 35.3125 32.8906C35.3125 33.6898 35.3125 34.4891 35.3125 35.3125C34.5133 35.3125 33.7141 35.3125 32.8906 35.3125C32.8906 34.5391 32.8906 33.7656 32.8906 32.9688C32.1172 32.9688 31.3438 32.9688 30.5469 32.9688C30.5469 32.1953 30.5469 31.4219 30.5469 30.625C29.7992 30.625 29.0516 30.625 28.2812 30.625C28.2812 31.3984 28.2812 32.1719 28.2812 32.9688C26.7344 32.9688 25.1875 32.9688 23.5938 32.9688C23.5938 33.7422 23.5938 34.5156 23.5938 35.3125C22.8203 35.3125 22.0469 35.3125 21.25 35.3125C21.25 36.8594 21.25 38.4062 21.25 40C20.425 40 19.6 40 18.75 40C18.75 38.4531 18.75 36.9062 18.75 35.3125C17.9766 35.3125 17.2031 35.3125 16.4062 35.3125C16.4062 34.5391 16.4062 33.7656 16.4062 32.9688C14.8594 32.9688 13.3125 32.9688 11.7188 32.9688C11.7188 32.1953 11.7188 31.4219 11.7188 30.625C10.9711 30.625 10.2234 30.625 9.45312 30.625C9.45312 31.3984 9.45312 32.1719 9.45312 32.9688C8.67969 32.9688 7.90625 32.9688 7.10938 32.9688C7.10938 33.7422 7.10938 34.5156 7.10938 35.3125C6.31016 35.3125 5.51094 35.3125 4.6875 35.3125C4.6875 34.5133 4.6875 33.7141 4.6875 32.8906C5.46094 32.8906 6.23438 32.8906 7.03125 32.8906C7.03125 32.1172 7.03125 31.3438 7.03125 30.5469C7.80469 30.5469 8.57812 30.5469 9.375 30.5469C9.375 29.7992 9.375 29.0516 9.375 28.2812C8.60156 28.2812 7.82812 28.2812 7.03125 28.2812C7.03125 26.7344 7.03125 25.1875 7.03125 23.5938C6.25781 23.5938 5.48438 23.5938 4.6875 23.5938C4.6875 22.8203 4.6875 22.0469 4.6875 21.25C3.14062 21.25 1.59375 21.25 0 21.25C0 20.425 0 19.6 0 18.75C1.54688 18.75 3.09375 18.75 4.6875 18.75C4.6875 17.9766 4.6875 17.2031 4.6875 16.4062C5.46094 16.4062 6.23438 16.4062 7.03125 16.4062C7.03125 14.8594 7.03125 13.3125 7.03125 11.7188C7.80469 11.7188 8.57812 11.7188 9.375 11.7188C9.375 10.9711 9.375 10.2234 9.375 9.45312C8.60156 9.45312 7.82812 9.45312 7.03125 9.45312C7.03125 8.67969 7.03125 7.90625 7.03125 7.10938C6.25781 7.10938 5.48438 7.10938 4.6875 7.10938C4.6875 6.31016 4.6875 5.51094 4.6875 4.6875C5.48672 4.6875 6.28594 4.6875 7.10938 4.6875C7.10938 5.46094 7.10938 6.23438 7.10938 7.03125C7.88281 7.03125 8.65625 7.03125 9.45312 7.03125C9.45312 7.80469 9.45312 8.57812 9.45312 9.375C10.2008 9.375 10.9484 9.375 11.7188 9.375C11.7188 8.60156 11.7188 7.82812 11.7188 7.03125C13.2656 7.03125 14.8125 7.03125 16.4062 7.03125C16.4062 6.25781 16.4062 5.48438 16.4062 4.6875C17.1797 4.6875 17.9531 4.6875 18.75 4.6875C18.75 3.14062 18.75 1.59375 18.75 0ZM16.4844 7.10938C16.4844 7.88281 16.4844 8.65625 16.4844 9.45312C14.9375 9.45312 13.3906 9.45312 11.7969 9.45312C11.7969 10.2266 11.7969 11 11.7969 11.7969C11.0234 11.7969 10.25 11.7969 9.45312 11.7969C9.45312 13.3438 9.45312 14.8906 9.45312 16.4844C8.67969 16.4844 7.90625 16.4844 7.10938 16.4844C7.10938 18.8047 7.10938 21.125 7.10938 23.5156C7.88281 23.5156 8.65625 23.5156 9.45312 23.5156C9.45312 25.0625 9.45312 26.6094 9.45312 28.2031C10.2266 28.2031 11 28.2031 11.7969 28.2031C11.7969 28.9766 11.7969 29.75 11.7969 30.5469C13.3438 30.5469 14.8906 30.5469 16.4844 30.5469C16.4844 31.3203 16.4844 32.0938 16.4844 32.8906C18.8047 32.8906 21.125 32.8906 23.5156 32.8906C23.5156 32.1172 23.5156 31.3438 23.5156 30.5469C25.0625 30.5469 26.6094 30.5469 28.2031 30.5469C28.2031 29.7734 28.2031 29 28.2031 28.2031C28.9766 28.2031 29.75 28.2031 30.5469 28.2031C30.5469 26.6562 30.5469 25.1094 30.5469 23.5156C31.3203 23.5156 32.0938 23.5156 32.8906 23.5156C32.8906 21.1953 32.8906 18.875 32.8906 16.4844C32.1172 16.4844 31.3438 16.4844 30.5469 16.4844C30.5469 14.9375 30.5469 13.3906 30.5469 11.7969C29.7734 11.7969 29 11.7969 28.2031 11.7969C28.2031 11.0234 28.2031 10.25 28.2031 9.45312C26.6562 9.45312 25.1094 9.45312 23.5156 9.45312C23.5156 8.67969 23.5156 7.90625 23.5156 7.10938C21.1953 7.10938 18.875 7.10938 16.4844 7.10938Z" fill="black"/>
<path id="Vector_2" d="M16.4062 11.7188C18.7781 11.7188 21.15 11.7188 23.5938 11.7188C23.5938 12.4922 23.5938 13.2656 23.5938 14.0625C24.3672 14.0625 25.1406 14.0625 25.9375 14.0625C25.9375 14.8359 25.9375 15.6094 25.9375 16.4062C26.7109 16.4062 27.4844 16.4062 28.2812 16.4062C28.2812 18.7781 28.2812 21.15 28.2812 23.5938C27.5078 23.5938 26.7344 23.5938 25.9375 23.5938C25.9375 24.3672 25.9375 25.1406 25.9375 25.9375C25.1641 25.9375 24.3906 25.9375 23.5938 25.9375C23.5938 26.7109 23.5938 27.4844 23.5938 28.2812C21.2219 28.2812 18.85 28.2812 16.4062 28.2812C16.4062 27.5078 16.4062 26.7344 16.4062 25.9375C15.6328 25.9375 14.8594 25.9375 14.0625 25.9375C14.0625 25.1641 14.0625 24.3906 14.0625 23.5938C13.2891 23.5938 12.5156 23.5938 11.7188 23.5938C11.7188 21.2219 11.7188 18.85 11.7188 16.4062C12.4922 16.4062 13.2656 16.4062 14.0625 16.4062C14.0625 15.6328 14.0625 14.8594 14.0625 14.0625C14.8359 14.0625 15.6094 14.0625 16.4062 14.0625C16.4062 13.2891 16.4062 12.5156 16.4062 11.7188ZM16.4844 14.1406C16.4844 14.9141 16.4844 15.6875 16.4844 16.4844C15.7109 16.4844 14.9375 16.4844 14.1406 16.4844C14.1406 18.8047 14.1406 21.125 14.1406 23.5156C14.9141 23.5156 15.6875 23.5156 16.4844 23.5156C16.4844 24.2891 16.4844 25.0625 16.4844 25.8594C18.8047 25.8594 21.125 25.8594 23.5156 25.8594C23.5156 25.0859 23.5156 24.3125 23.5156 23.5156C24.2891 23.5156 25.0625 23.5156 25.8594 23.5156C25.8594 21.1953 25.8594 18.875 25.8594 16.4844C25.0859 16.4844 24.3125 16.4844 23.5156 16.4844C23.5156 15.7109 23.5156 14.9375 23.5156 14.1406C21.1953 14.1406 18.875 14.1406 16.4844 14.1406Z" fill="black"/>
<path id="Vector_3" d="M25.8594 35.2344C26.6586 35.2344 27.4578 35.2344 28.2812 35.2344C28.2812 36.0336 28.2812 36.8328 28.2812 37.6562C27.482 37.6562 26.6828 37.6562 25.8594 37.6562C25.8594 36.857 25.8594 36.0578 25.8594 35.2344Z" fill="black"/>
<path id="Vector_4" d="M11.7188 35.2344C12.518 35.2344 13.3172 35.2344 14.1406 35.2344C14.1406 36.0336 14.1406 36.8328 14.1406 37.6562C13.3414 37.6562 12.5422 37.6562 11.7188 37.6562C11.7188 36.857 11.7188 36.0578 11.7188 35.2344Z" fill="black"/>
<path id="Vector_5" d="M35.2344 25.8594C36.0336 25.8594 36.8328 25.8594 37.6562 25.8594C37.6562 26.6586 37.6562 27.4578 37.6562 28.2812C36.857 28.2812 36.0578 28.2812 35.2344 28.2812C35.2344 27.482 35.2344 26.6828 35.2344 25.8594Z" fill="black"/>
<path id="Vector_6" d="M2.34375 25.8594C3.14297 25.8594 3.94219 25.8594 4.76562 25.8594C4.76562 26.6586 4.76562 27.4578 4.76562 28.2812C3.96641 28.2812 3.16719 28.2812 2.34375 28.2812C2.34375 27.482 2.34375 26.6828 2.34375 25.8594Z" fill="black"/>
<path id="Vector_7" d="M35.2344 11.7188C36.0336 11.7188 36.8328 11.7188 37.6562 11.7188C37.6562 12.518 37.6562 13.3172 37.6562 14.1406C36.857 14.1406 36.0578 14.1406 35.2344 14.1406C35.2344 13.3414 35.2344 12.5422 35.2344 11.7188Z" fill="black"/>
<path id="Vector_8" d="M2.34375 11.7188C3.14297 11.7188 3.94219 11.7188 4.76562 11.7188C4.76562 12.518 4.76562 13.3172 4.76562 14.1406C3.96641 14.1406 3.16719 14.1406 2.34375 14.1406C2.34375 13.3414 2.34375 12.5422 2.34375 11.7188Z" fill="black"/>
<path id="Vector_9" d="M25.8594 2.34375C26.6586 2.34375 27.4578 2.34375 28.2812 2.34375C28.2812 3.14297 28.2812 3.94219 28.2812 4.76562C27.482 4.76562 26.6828 4.76562 25.8594 4.76562C25.8594 3.96641 25.8594 3.16719 25.8594 2.34375Z" fill="black"/>
<path id="Vector_10" d="M11.7188 2.34375C12.518 2.34375 13.3172 2.34375 14.1406 2.34375C14.1406 3.14297 14.1406 3.94219 14.1406 4.76562C13.3414 4.76562 12.5422 4.76562 11.7188 4.76562C11.7188 3.96641 11.7188 3.16719 11.7188 2.34375Z" fill="black"/>
</g>
<defs>
<clipPath id="clip0_33_683">
<rect width="40" height="40" fill="white"/>
</clipPath>
</defs>
</svg>
