<svg width="40" height="40" viewBox="0 0 40 40" fill="none" xmlns="http://www.w3.org/2000/svg">
<g id="music-control-icon">
<g id="Group 6">
<path id="Vector" d="M4 0C6.4434 0 8.88681 0 11.4043 0C11.4043 1.20766 11.4043 2.41532 11.4043 3.65957C12.6119 3.65957 13.8196 3.65957 15.0638 3.65957C15.0638 4.83915 15.0638 6.01872 15.0638 7.23404C16.2434 7.23404 17.423 7.23404 18.6383 7.23404C18.6383 8.4417 18.6383 9.64936 18.6383 10.8936C19.846 10.8936 21.0536 10.8936 22.2979 10.8936C22.2979 12.1013 22.2979 13.3089 22.2979 14.5532C23.5055 14.5532 24.7132 14.5532 25.9574 14.5532C25.9574 15.7328 25.9574 16.9123 25.9574 18.1277C27.137 18.1277 28.3166 18.1277 29.5319 18.1277C29.5319 19.3634 29.5319 20.5991 29.5319 21.8723C28.3523 21.8723 27.1728 21.8723 25.9574 21.8723C25.9574 23.08 25.9574 24.2877 25.9574 25.5319C24.7498 25.5319 23.5421 25.5319 22.2979 25.5319C22.2979 26.7115 22.2979 27.8911 22.2979 29.1064C21.0902 29.1064 19.8826 29.1064 18.6383 29.1064C18.6383 30.314 18.6383 31.5217 18.6383 32.766C17.4587 32.766 16.2792 32.766 15.0638 32.766C15.0638 33.9455 15.0638 35.1251 15.0638 36.3404C13.8562 36.3404 12.6485 36.3404 11.4043 36.3404C11.4043 37.5481 11.4043 38.7557 11.4043 40C8.96085 40 6.51745 40 4 40C4 26.8 4 13.6 4 0Z" fill="black"/>
<path id="Vector_2" d="M33.1064 3.65967C34.3141 3.65967 35.5218 3.65967 36.766 3.65967C36.766 14.4443 36.766 25.229 36.766 36.3405C35.5584 36.3405 34.3507 36.3405 33.1064 36.3405C33.1064 25.5558 33.1064 14.7712 33.1064 3.65967Z" fill="black"/>
</g>
</g>
</svg>
