<svg width="40" height="40" viewBox="0 0 40 40" fill="none" xmlns="http://www.w3.org/2000/svg">
<g id="music-on-icon" clip-path="url(#clip0_33_598)">
<path id="Vector" d="M21.1719 11.7188C25.8383 11.7188 30.5047 11.7188 35.3125 11.7188C35.3125 12.4922 35.3125 13.2656 35.3125 14.0625C36.0859 14.0625 36.8594 14.0625 37.6562 14.0625C37.6562 20.2758 37.6562 26.4891 37.6562 32.8906C38.4297 32.8906 39.2031 32.8906 40 32.8906C40 34.4633 40 36.0359 40 37.6562C39.2266 37.6562 38.4531 37.6562 37.6562 37.6562C37.6562 38.4297 37.6562 39.2031 37.6562 40C35.3102 40 32.9641 40 30.5469 40C30.5469 39.2266 30.5469 38.4531 30.5469 37.6562C29.7734 37.6562 29 37.6562 28.2031 37.6562C28.2031 36.0836 28.2031 34.5109 28.2031 32.8906C28.9766 32.8906 29.75 32.8906 30.5469 32.8906C30.5469 32.1172 30.5469 31.3438 30.5469 30.5469C32.0938 30.5469 33.6406 30.5469 35.2344 30.5469C35.2344 26.6797 35.2344 22.8125 35.2344 18.8281C30.6195 18.8281 26.0047 18.8281 21.25 18.8281C21.25 23.4688 21.25 28.1094 21.25 32.8906C22.0234 32.8906 22.7969 32.8906 23.5938 32.8906C23.5938 34.4633 23.5938 36.0359 23.5938 37.6562C22.8203 37.6562 22.0469 37.6562 21.25 37.6562C21.25 38.4297 21.25 39.2031 21.25 40C18.8781 40 16.5062 40 14.0625 40C14.0625 39.2266 14.0625 38.4531 14.0625 37.6562C13.2891 37.6562 12.5156 37.6562 11.7188 37.6562C11.7188 36.0836 11.7188 34.5109 11.7188 32.8906C12.4922 32.8906 13.2656 32.8906 14.0625 32.8906C14.0625 32.1172 14.0625 31.3438 14.0625 30.5469C15.6094 30.5469 17.1562 30.5469 18.75 30.5469C18.75 25.107 18.75 19.6672 18.75 14.0625C19.5492 14.0625 20.3484 14.0625 21.1719 14.0625C21.1719 13.2891 21.1719 12.5156 21.1719 11.7188Z" fill="black"/>
<path id="Vector_2" d="M9.375 0C11.7211 0 14.0672 0 16.4844 0C16.4844 0.773438 16.4844 1.54688 16.4844 2.34375C17.2578 2.34375 18.0312 2.34375 18.8281 2.34375C18.8281 3.14297 18.8281 3.94219 18.8281 4.76562C18.0547 4.76562 17.2812 4.76562 16.4844 4.76562C16.4844 5.53906 16.4844 6.3125 16.4844 7.10938C14.1641 7.10938 11.8438 7.10938 9.45312 7.10938C9.45312 11.75 9.45312 16.3906 9.45312 21.1719C10.2266 21.1719 11 21.1719 11.7969 21.1719C11.7969 22.7445 11.7969 24.3172 11.7969 25.9375C11.0234 25.9375 10.25 25.9375 9.45312 25.9375C9.45312 26.7109 9.45312 27.4844 9.45312 28.2812C7.10703 28.2812 4.76094 28.2812 2.34375 28.2812C2.34375 27.5078 2.34375 26.7344 2.34375 25.9375C1.57031 25.9375 0.796875 25.9375 0 25.9375C0 24.3648 0 22.7922 0 21.1719C0.773438 21.1719 1.54688 21.1719 2.34375 21.1719C2.34375 20.3727 2.34375 19.5734 2.34375 18.75C3.89062 18.75 5.4375 18.75 7.03125 18.75C7.03125 13.3359 7.03125 7.92188 7.03125 2.34375C7.80469 2.34375 8.57812 2.34375 9.375 2.34375C9.375 1.57031 9.375 0.796875 9.375 0Z" fill="black"/>
<path id="Vector_3" d="M28.2031 0C29.0023 0 29.8016 0 30.625 0C30.625 0.773438 30.625 1.54688 30.625 2.34375C31.3984 2.34375 32.1719 2.34375 32.9688 2.34375C32.9688 3.14297 32.9688 3.94219 32.9688 4.76562C32.1953 4.76562 31.4219 4.76562 30.625 4.76562C30.625 5.53906 30.625 6.3125 30.625 7.10938C29.8258 7.10938 29.0266 7.10938 28.2031 7.10938C28.2031 6.33594 28.2031 5.5625 28.2031 4.76562C27.4297 4.76562 26.6562 4.76562 25.8594 4.76562C25.8594 3.96641 25.8594 3.16719 25.8594 2.34375C26.6328 2.34375 27.4062 2.34375 28.2031 2.34375C28.2031 1.57031 28.2031 0.796875 28.2031 0ZM28.2812 2.42188C28.2812 3.16953 28.2812 3.91719 28.2812 4.6875C29.0289 4.6875 29.7766 4.6875 30.5469 4.6875C30.5469 3.93984 30.5469 3.19219 30.5469 2.42188C29.7992 2.42188 29.0516 2.42188 28.2812 2.42188Z" fill="black"/>
<path id="Vector_4" d="M4.6875 32.8906C5.48672 32.8906 6.28594 32.8906 7.10938 32.8906C7.10938 33.6898 7.10938 34.4891 7.10938 35.3125C6.31016 35.3125 5.51094 35.3125 4.6875 35.3125C4.6875 34.5133 4.6875 33.7141 4.6875 32.8906Z" fill="black"/>
<path id="Vector_5" d="M25.8594 23.5156C26.6586 23.5156 27.4578 23.5156 28.2812 23.5156C28.2812 24.3148 28.2812 25.1141 28.2812 25.9375C27.482 25.9375 26.6828 25.9375 25.8594 25.9375C25.8594 25.1383 25.8594 24.3391 25.8594 23.5156Z" fill="black"/>
<path id="Vector_6" d="M35.2344 7.03125C36.0336 7.03125 36.8328 7.03125 37.6562 7.03125C37.6562 7.83047 37.6562 8.62969 37.6562 9.45312C36.857 9.45312 36.0578 9.45312 35.2344 9.45312C35.2344 8.65391 35.2344 7.85469 35.2344 7.03125Z" fill="black"/>
<path id="Vector_7" d="M21.1719 7.03125C21.9711 7.03125 22.7703 7.03125 23.5938 7.03125C23.5938 7.83047 23.5938 8.62969 23.5938 9.45312C22.7945 9.45312 21.9953 9.45312 21.1719 9.45312C21.1719 8.65391 21.1719 7.85469 21.1719 7.03125Z" fill="black"/>
</g>
<defs>
<clipPath id="clip0_33_598">
<rect width="40" height="40" fill="white"/>
</clipPath>
</defs>
</svg>
