<svg width="30" height="40" viewBox="0 0 30 40" fill="none" xmlns="http://www.w3.org/2000/svg">
<g id="naigation-button-main">
<g id="Union">
<mask id="path-1-inside-1_27_107" fill="white">
<path fill-rule="evenodd" clip-rule="evenodd" d="M3.67522 0H10.9402V3.58974H14.6154V7.17947H18.3761V10.7693H21.9658V14.4444H25.812V18.0342H29.3163V21.8804H25.641V25.641H21.9658V29.3162H18.2906V32.9915H14.7009V36.4103H10.9402V40H3.67522V36.4103H0.0854874V32.8205H3.67522V29.1453H7.35044V25.4701H10.9402V21.7949H14.6154V18.2051H10.9402V14.5299H7.26495V10.9402H3.67522V7.26495H0V3.58974H3.67522V0Z"/>
</mask>
<path d="M10.9402 0H11.6731V-0.732906H10.9402V0ZM3.67522 0V-0.732906H2.94232V0H3.67522ZM10.9402 3.58974H10.2073V4.32264H10.9402V3.58974ZM14.6154 3.58974H15.3483V2.85683H14.6154V3.58974ZM14.6154 7.17947H13.8825V7.91238H14.6154V7.17947ZM18.3761 7.17947H19.109V6.44657H18.3761V7.17947ZM18.3761 10.7693H17.6432V11.5022H18.3761V10.7693ZM21.9658 10.7693H22.6987V10.0364H21.9658V10.7693ZM21.9658 14.4444H21.2329V15.1773H21.9658V14.4444ZM25.812 14.4444H26.5449V13.7115H25.812V14.4444ZM25.812 18.0342H25.0791V18.7671H25.812V18.0342ZM29.3163 18.0342H30.0492V17.3013H29.3163V18.0342ZM29.3163 21.8804V22.6133H30.0492V21.8804H29.3163ZM25.641 21.8804V21.1475H24.9081V21.8804H25.641ZM25.641 25.641V26.3739H26.3739V25.641H25.641ZM21.9658 25.641V24.9081H21.2329V25.641H21.9658ZM21.9658 29.3162V30.0492H22.6987V29.3162H21.9658ZM18.2906 29.3162V28.5833H17.5577V29.3162H18.2906ZM18.2906 32.9915V33.7244H19.0235V32.9915H18.2906ZM14.7009 32.9915V32.2586H13.968V32.9915H14.7009ZM14.7009 36.4103V37.1432H15.4338V36.4103H14.7009ZM10.9402 36.4103V35.6774H10.2073V36.4103H10.9402ZM10.9402 40V40.7329H11.6731V40H10.9402ZM3.67522 40H2.94232V40.7329H3.67522V40ZM3.67522 36.4103H4.40813V35.6774H3.67522V36.4103ZM0.0854874 36.4103H-0.647419V37.1432H0.0854874V36.4103ZM0.0854874 32.8205V32.0876H-0.647419V32.8205H0.0854874ZM3.67522 32.8205V33.5534H4.40813V32.8205H3.67522ZM3.67522 29.1453V28.4124H2.94232V29.1453H3.67522ZM7.35044 29.1453V29.8782H8.08335V29.1453H7.35044ZM7.35044 25.4701V24.7372H6.61754V25.4701H7.35044ZM10.9402 25.4701V26.203H11.6731V25.4701H10.9402ZM10.9402 21.7949V21.062H10.2073V21.7949H10.9402ZM14.6154 21.7949V22.5278H15.3483V21.7949H14.6154ZM14.6154 18.2051H15.3483V17.4722H14.6154V18.2051ZM10.9402 18.2051H10.2073V18.938H10.9402V18.2051ZM10.9402 14.5299H11.6731V13.797H10.9402V14.5299ZM7.26495 14.5299H6.53205V15.2628H7.26495V14.5299ZM7.26495 10.9402H7.99786V10.2073H7.26495V10.9402ZM3.67522 10.9402H2.94232V11.6731H3.67522V10.9402ZM3.67522 7.26495H4.40813V6.53204H3.67522V7.26495ZM0 7.26495H-0.732906V7.99786H0V7.26495ZM0 3.58974V2.85683H-0.732906V3.58974H0ZM3.67522 3.58974V4.32264H4.40813V3.58974H3.67522ZM10.9402 -0.732906H3.67522V0.732906H10.9402V-0.732906ZM11.6731 3.58974V0H10.2073V3.58974H11.6731ZM10.9402 4.32264H14.6154V2.85683H10.9402V4.32264ZM13.8825 3.58974V7.17947H15.3483V3.58974H13.8825ZM14.6154 7.91238H18.3761V6.44657H14.6154V7.91238ZM17.6432 7.17947V10.7693H19.109V7.17947H17.6432ZM18.3761 11.5022H21.9658V10.0364H18.3761V11.5022ZM21.2329 10.7693V14.4444H22.6987V10.7693H21.2329ZM21.9658 15.1773H25.812V13.7115H21.9658V15.1773ZM25.0791 14.4444V18.0342H26.5449V14.4444H25.0791ZM25.812 18.7671H29.3163V17.3013H25.812V18.7671ZM28.5834 18.0342V21.8804H30.0492V18.0342H28.5834ZM29.3163 21.1475H25.641V22.6133H29.3163V21.1475ZM24.9081 21.8804V25.641H26.3739V21.8804H24.9081ZM25.641 24.9081H21.9658V26.3739H25.641V24.9081ZM21.2329 25.641V29.3162H22.6987V25.641H21.2329ZM21.9658 28.5833H18.2906V30.0492H21.9658V28.5833ZM17.5577 29.3162V32.9915H19.0235V29.3162H17.5577ZM18.2906 32.2586H14.7009V33.7244H18.2906V32.2586ZM13.968 32.9915V36.4103H15.4338V32.9915H13.968ZM14.7009 35.6774H10.9402V37.1432H14.7009V35.6774ZM10.2073 36.4103V40H11.6731V36.4103H10.2073ZM10.9402 39.2671H3.67522V40.7329H10.9402V39.2671ZM4.40813 40V36.4103H2.94232V40H4.40813ZM3.67522 35.6774H0.0854874V37.1432H3.67522V35.6774ZM0.818393 36.4103V32.8205H-0.647419V36.4103H0.818393ZM0.0854874 33.5534H3.67522V32.0876H0.0854874V33.5534ZM4.40813 32.8205V29.1453H2.94232V32.8205H4.40813ZM3.67522 29.8782H7.35044V28.4124H3.67522V29.8782ZM8.08335 29.1453V25.4701H6.61754V29.1453H8.08335ZM7.35044 26.203H10.9402V24.7372H7.35044V26.203ZM11.6731 25.4701V21.7949H10.2073V25.4701H11.6731ZM10.9402 22.5278H14.6154V21.062H10.9402V22.5278ZM15.3483 21.7949V18.2051H13.8825V21.7949H15.3483ZM14.6154 17.4722H10.9402V18.938H14.6154V17.4722ZM11.6731 18.2051V14.5299H10.2073V18.2051H11.6731ZM10.9402 13.797H7.26495V15.2628H10.9402V13.797ZM7.99786 14.5299V10.9402H6.53205V14.5299H7.99786ZM7.26495 10.2073H3.67522V11.6731H7.26495V10.2073ZM4.40813 10.9402V7.26495H2.94232V10.9402H4.40813ZM3.67522 6.53204H0V7.99786H3.67522V6.53204ZM0.732906 7.26495V3.58974H-0.732906V7.26495H0.732906ZM0 4.32264H3.67522V2.85683H0V4.32264ZM2.94232 0V3.58974H4.40813V0H2.94232Z" fill="black" mask="url(#path-1-inside-1_27_107)"/>
</g>
</g>
</svg>
