<svg width="38" height="32" viewBox="0 0 38 32" fill="none" xmlns="http://www.w3.org/2000/svg">
<g id="next-arrow-icon" clip-path="url(#clip0_33_368)">
<path id="Vector" d="M18.8218 0C20.3472 0 21.8725 0 23.4441 0C23.4441 1.52533 23.4441 3.05067 23.4441 4.62222C24.9401 4.62222 26.4361 4.62222 27.9774 4.62222C27.9774 6.11822 27.9774 7.61422 27.9774 9.15556C29.4734 9.15556 30.9694 9.15556 32.5107 9.15556C32.5107 10.6516 32.5107 12.1476 32.5107 13.6889C34.0067 13.6889 35.5027 13.6889 37.0441 13.6889C37.0441 15.2142 37.0441 16.7396 37.0441 18.3111C35.548 18.3111 34.0521 18.3111 32.5107 18.3111C32.5107 19.8071 32.5107 21.3031 32.5107 22.8444C31.0147 22.8444 29.5187 22.8444 27.9774 22.8444C27.9774 24.3404 27.9774 25.8364 27.9774 27.3778C26.4814 27.3778 24.9854 27.3778 23.4441 27.3778C23.4441 28.9031 23.4441 30.4284 23.4441 32C21.9187 32 20.3934 32 18.8218 32C18.8218 30.4747 18.8218 28.9493 18.8218 27.3778C20.3178 27.3778 21.8138 27.3778 23.3552 27.3778C23.3552 25.8524 23.3552 24.3271 23.3552 22.7556C24.8512 22.7556 26.3472 22.7556 27.8885 22.7556C27.8885 21.2889 27.8885 19.8222 27.8885 18.3111C18.8832 18.3111 9.87783 18.3111 0.599609 18.3111C0.599609 16.7858 0.599609 15.2604 0.599609 13.6889C9.60494 13.6889 18.6103 13.6889 27.8885 13.6889C27.8885 12.2222 27.8885 10.7556 27.8885 9.24444C26.3925 9.24444 24.8965 9.24444 23.3552 9.24444C23.3552 7.71911 23.3552 6.19378 23.3552 4.62222C21.8592 4.62222 20.3632 4.62222 18.8218 4.62222C18.8218 3.09689 18.8218 1.57156 18.8218 0Z" fill="black"/>
</g>
<defs>
<clipPath id="clip0_33_368">
<rect width="36.8" height="32" fill="white" transform="translate(0.599609)"/>
</clipPath>
</defs>
</svg>
