<svg width="40" height="40" viewBox="0 0 40 40" fill="none" xmlns="http://www.w3.org/2000/svg">
<g id="pause-icon">
<path id="Vector" d="M9 0C10.2357 0 11.4715 0 12.7447 0C12.7447 1.20766 12.7447 2.41532 12.7447 3.65957C13.9523 3.65957 15.16 3.65957 16.4043 3.65957C16.4043 4.83915 16.4043 6.01872 16.4043 7.23404C17.6119 7.23404 18.8196 7.23404 20.0638 7.23404C20.0638 8.4417 20.0638 9.64936 20.0638 10.8936C21.2434 10.8936 22.423 10.8936 23.6383 10.8936C23.6383 12.1013 23.6383 13.3089 23.6383 14.5532C24.846 14.5532 26.0536 14.5532 27.2979 14.5532C27.2979 15.7328 27.2979 16.9123 27.2979 18.1277C28.4774 18.1277 29.657 18.1277 30.8723 18.1277C30.8723 19.3634 30.8723 20.5991 30.8723 21.8723C29.6928 21.8723 28.5132 21.8723 27.2979 21.8723C27.2979 23.08 27.2979 24.2877 27.2979 25.5319C26.0902 25.5319 24.8826 25.5319 23.6383 25.5319C23.6383 26.7115 23.6383 27.8911 23.6383 29.1064C22.4587 29.1064 21.2792 29.1064 20.0638 29.1064C20.0638 30.314 20.0638 31.5217 20.0638 32.766C18.8562 32.766 17.6485 32.766 16.4043 32.766C16.4043 33.9455 16.4043 35.1251 16.4043 36.3404C15.1966 36.3404 13.9889 36.3404 12.7447 36.3404C12.7447 37.5481 12.7447 38.7557 12.7447 40C11.5089 40 10.2732 40 9 40C9 26.8 9 13.6 9 0Z" fill="black"/>
</g>
</svg>
