<svg width="41" height="40" viewBox="0 0 41 40" fill="none" xmlns="http://www.w3.org/2000/svg">
<g id="question-filled-icon" clip-path="url(#clip0_27_103)">
<path id="Vector" d="M13.3896 0C18.0303 0 22.6709 0 27.4521 0C27.4521 0.850781 27.4521 1.70156 27.4521 2.57812C29.1537 2.57812 30.8553 2.57812 32.6084 2.57812C32.6084 3.42891 32.6084 4.27969 32.6084 5.15625C33.485 5.15625 34.3615 5.15625 35.2646 5.15625C35.2646 6.03281 35.2646 6.90938 35.2646 7.8125C36.1154 7.8125 36.9662 7.8125 37.8428 7.8125C37.8428 9.51406 37.8428 11.2156 37.8428 12.9688C38.6936 12.9688 39.5443 12.9688 40.4209 12.9688C40.4209 17.6094 40.4209 22.25 40.4209 27.0312C39.5701 27.0312 38.7193 27.0312 37.8428 27.0312C37.8428 28.7328 37.8428 30.4344 37.8428 32.1875C36.992 32.1875 36.1412 32.1875 35.2646 32.1875C35.2646 33.0641 35.2646 33.9406 35.2646 34.8438C34.3881 34.8438 33.5115 34.8438 32.6084 34.8438C32.6084 35.6945 32.6084 36.5453 32.6084 37.4219C30.9068 37.4219 29.2053 37.4219 27.4521 37.4219C27.4521 38.2727 27.4521 39.1234 27.4521 40C22.8115 40 18.1709 40 13.3896 40C13.3896 39.1492 13.3896 38.2984 13.3896 37.4219C11.6881 37.4219 9.98652 37.4219 8.2334 37.4219C8.2334 36.5711 8.2334 35.7203 8.2334 34.8438C7.35684 34.8438 6.48027 34.8438 5.57715 34.8438C5.57715 33.9672 5.57715 33.0906 5.57715 32.1875C4.72637 32.1875 3.87559 32.1875 2.99902 32.1875C2.99902 30.4859 2.99902 28.7844 2.99902 27.0312C2.14824 27.0312 1.29746 27.0312 0.420898 27.0312C0.420898 22.3906 0.420898 17.75 0.420898 12.9688C1.27168 12.9688 2.12246 12.9688 2.99902 12.9688C2.99902 11.2672 2.99902 9.56563 2.99902 7.8125C3.8498 7.8125 4.70059 7.8125 5.57715 7.8125C5.57715 6.93594 5.57715 6.05937 5.57715 5.15625C6.45371 5.15625 7.33027 5.15625 8.2334 5.15625C8.2334 4.30547 8.2334 3.45469 8.2334 2.57812C9.93496 2.57812 11.6365 2.57812 13.3896 2.57812C13.3896 1.72734 13.3896 0.876563 13.3896 0ZM15.2646 7.89062C15.2646 8.71562 15.2646 9.54062 15.2646 10.3906C18.3842 10.3906 21.5037 10.3906 24.7178 10.3906C24.7178 9.56563 24.7178 8.74063 24.7178 7.89062C21.5982 7.89062 18.4787 7.89062 15.2646 7.89062ZM12.6084 10.4688C12.6084 12.1703 12.6084 13.8719 12.6084 15.625C13.4592 15.625 14.31 15.625 15.1865 15.625C15.1865 13.9234 15.1865 12.2219 15.1865 10.4688C14.3357 10.4688 13.485 10.4688 12.6084 10.4688ZM24.7959 10.4688C24.7959 13.3047 24.7959 16.1406 24.7959 19.0625C25.6467 19.0625 26.4975 19.0625 27.374 19.0625C27.374 16.2266 27.374 13.3906 27.374 10.4688C26.5232 10.4688 25.6725 10.4688 24.7959 10.4688ZM21.3584 19.1406C21.3584 19.9914 21.3584 20.8422 21.3584 21.7188C22.467 21.7188 23.5756 21.7188 24.7178 21.7188C24.7178 20.868 24.7178 20.0172 24.7178 19.1406C23.6092 19.1406 22.5006 19.1406 21.3584 19.1406ZM18.7021 21.7969C18.7021 23.4984 18.7021 25.2 18.7021 26.9531C19.5529 26.9531 20.4037 26.9531 21.2803 26.9531C21.2803 25.2516 21.2803 23.55 21.2803 21.7969C20.4295 21.7969 19.5787 21.7969 18.7021 21.7969ZM18.7021 29.6094C18.7021 30.4344 18.7021 31.2594 18.7021 32.1094C19.5529 32.1094 20.4037 32.1094 21.2803 32.1094C21.2803 31.2844 21.2803 30.4594 21.2803 29.6094C20.4295 29.6094 19.5787 29.6094 18.7021 29.6094Z" fill="black"/>
</g>
<defs>
<clipPath id="clip0_27_103">
<rect width="40" height="40" fill="white" transform="translate(0.420898)"/>
</clipPath>
</defs>
</svg>
