<svg width="41" height="40" viewBox="0 0 41 40" fill="none" xmlns="http://www.w3.org/2000/svg">
<g id="question-outlined-icon" clip-path="url(#clip0_27_101)">
<path id="Vector" d="M13.3896 0C18.0303 0 22.6709 0 27.4521 0C27.4521 0.850781 27.4521 1.70156 27.4521 2.57812C29.1537 2.57812 30.8553 2.57812 32.6084 2.57812C32.6084 3.42891 32.6084 4.27969 32.6084 5.15625C33.485 5.15625 34.3615 5.15625 35.2646 5.15625C35.2646 6.03281 35.2646 6.90938 35.2646 7.8125C36.1154 7.8125 36.9662 7.8125 37.8428 7.8125C37.8428 9.51406 37.8428 11.2156 37.8428 12.9688C38.6936 12.9688 39.5443 12.9688 40.4209 12.9688C40.4209 17.6094 40.4209 22.25 40.4209 27.0312C39.5701 27.0312 38.7193 27.0312 37.8428 27.0312C37.8428 28.7328 37.8428 30.4344 37.8428 32.1875C36.992 32.1875 36.1412 32.1875 35.2646 32.1875C35.2646 33.0641 35.2646 33.9406 35.2646 34.8438C34.3881 34.8438 33.5115 34.8438 32.6084 34.8438C32.6084 35.6945 32.6084 36.5453 32.6084 37.4219C30.9068 37.4219 29.2053 37.4219 27.4521 37.4219C27.4521 38.2727 27.4521 39.1234 27.4521 40C22.8115 40 18.1709 40 13.3896 40C13.3896 39.1492 13.3896 38.2984 13.3896 37.4219C11.6881 37.4219 9.98652 37.4219 8.2334 37.4219C8.2334 36.5711 8.2334 35.7203 8.2334 34.8438C7.35684 34.8438 6.48027 34.8438 5.57715 34.8438C5.57715 33.9672 5.57715 33.0906 5.57715 32.1875C4.72637 32.1875 3.87559 32.1875 2.99902 32.1875C2.99902 30.4859 2.99902 28.7844 2.99902 27.0312C2.14824 27.0312 1.29746 27.0312 0.420898 27.0312C0.420898 22.3906 0.420898 17.75 0.420898 12.9688C1.27168 12.9688 2.12246 12.9688 2.99902 12.9688C2.99902 11.2672 2.99902 9.56563 2.99902 7.8125C3.8498 7.8125 4.70059 7.8125 5.57715 7.8125C5.57715 6.93594 5.57715 6.05937 5.57715 5.15625C6.45371 5.15625 7.33027 5.15625 8.2334 5.15625C8.2334 4.30547 8.2334 3.45469 8.2334 2.57812C9.93496 2.57812 11.6365 2.57812 13.3896 2.57812C13.3896 1.72734 13.3896 0.876563 13.3896 0ZM13.4678 2.65625C13.4678 3.50703 13.4678 4.35781 13.4678 5.23438C11.7662 5.23438 10.0646 5.23438 8.31152 5.23438C8.31152 6.11094 8.31152 6.9875 8.31152 7.89062C7.43496 7.89062 6.5584 7.89062 5.65527 7.89062C5.65527 9.59219 5.65527 11.2937 5.65527 13.0469C4.80449 13.0469 3.95371 13.0469 3.07715 13.0469C3.07715 17.6359 3.07715 22.225 3.07715 26.9531C3.92793 26.9531 4.77871 26.9531 5.65527 26.9531C5.65527 28.6547 5.65527 30.3563 5.65527 32.1094C6.53184 32.1094 7.4084 32.1094 8.31152 32.1094C8.31152 32.9859 8.31152 33.8625 8.31152 34.7656C10.0131 34.7656 11.7146 34.7656 13.4678 34.7656C13.4678 35.6164 13.4678 36.4672 13.4678 37.3438C18.0568 37.3438 22.6459 37.3438 27.374 37.3438C27.374 36.493 27.374 35.6422 27.374 34.7656C29.0756 34.7656 30.7771 34.7656 32.5303 34.7656C32.5303 33.8891 32.5303 33.0125 32.5303 32.1094C33.4068 32.1094 34.2834 32.1094 35.1865 32.1094C35.1865 30.4078 35.1865 28.7062 35.1865 26.9531C36.0373 26.9531 36.8881 26.9531 37.7646 26.9531C37.7646 22.3641 37.7646 17.775 37.7646 13.0469C36.9139 13.0469 36.0631 13.0469 35.1865 13.0469C35.1865 11.3453 35.1865 9.64375 35.1865 7.89062C34.31 7.89062 33.4334 7.89062 32.5303 7.89062C32.5303 7.01406 32.5303 6.1375 32.5303 5.23438C30.8287 5.23438 29.1271 5.23438 27.374 5.23438C27.374 4.38359 27.374 3.53281 27.374 2.65625C22.785 2.65625 18.1959 2.65625 13.4678 2.65625Z" fill="black"/>
<path id="Vector_2" d="M15.1865 7.8125C18.3576 7.8125 21.5287 7.8125 24.7959 7.8125C24.7959 8.66328 24.7959 9.51406 24.7959 10.3906C25.6725 10.3906 26.549 10.3906 27.4521 10.3906C27.4521 13.2781 27.4521 16.1656 27.4521 19.1406C26.5756 19.1406 25.699 19.1406 24.7959 19.1406C24.7959 20.0172 24.7959 20.8938 24.7959 21.7969C23.6615 21.7969 22.5271 21.7969 21.3584 21.7969C21.3584 23.5242 21.3584 25.2516 21.3584 27.0312C20.4561 27.0312 19.5537 27.0312 18.624 27.0312C18.624 25.2781 18.624 23.525 18.624 21.7188C19.5006 21.7188 20.3771 21.7188 21.2803 21.7188C21.2803 20.8422 21.2803 19.9656 21.2803 19.0625C22.4146 19.0625 23.549 19.0625 24.7178 19.0625C24.7178 16.2266 24.7178 13.3906 24.7178 10.4688C21.5982 10.4688 18.4787 10.4688 15.2646 10.4688C15.2646 12.1961 15.2646 13.9234 15.2646 15.7031C14.3623 15.7031 13.46 15.7031 12.5303 15.7031C12.5303 13.95 12.5303 12.1969 12.5303 10.3906C13.4068 10.3906 14.2834 10.3906 15.1865 10.3906C15.1865 9.53984 15.1865 8.68906 15.1865 7.8125Z" fill="black"/>
<path id="Vector_3" d="M18.624 29.5312C19.5264 29.5312 20.4287 29.5312 21.3584 29.5312C21.3584 30.4078 21.3584 31.2844 21.3584 32.1875C20.4561 32.1875 19.5537 32.1875 18.624 32.1875C18.624 31.3109 18.624 30.4344 18.624 29.5312Z" fill="black"/>
</g>
<defs>
<clipPath id="clip0_27_101">
<rect width="40" height="40" fill="white" transform="translate(0.420898)"/>
</clipPath>
</defs>
</svg>
