<svg width="40" height="40" viewBox="0 0 40 40" fill="none" xmlns="http://www.w3.org/2000/svg">
<g id="restart-icon" clip-path="url(#clip0_33_680)">
<path id="Vector" d="M19.0625 0C25.9719 0 32.8812 0 40 0C40 1.72734 40 3.45469 40 5.23438C39.1492 5.23438 38.2984 5.23438 37.4219 5.23438C37.4219 6.11094 37.4219 6.9875 37.4219 7.89062C36.5711 7.89062 35.7203 7.89062 34.8438 7.89062C34.8438 8.71562 34.8438 9.54062 34.8438 10.3906C35.6945 10.3906 36.5453 10.3906 37.4219 10.3906C37.4219 12.118 37.4219 13.8453 37.4219 15.625C38.2727 15.625 39.1234 15.625 40 15.625C40 19.3891 40 23.1531 40 27.0312C39.1492 27.0312 38.2984 27.0312 37.4219 27.0312C37.4219 28.7328 37.4219 30.4344 37.4219 32.1875C36.5711 32.1875 35.7203 32.1875 34.8438 32.1875C34.8438 33.0641 34.8438 33.9406 34.8438 34.8438C33.9672 34.8438 33.0906 34.8438 32.1875 34.8438C32.1875 35.6945 32.1875 36.5453 32.1875 37.4219C30.4859 37.4219 28.7844 37.4219 27.0312 37.4219C27.0312 38.2727 27.0312 39.1234 27.0312 40C22.3906 40 17.75 40 12.9688 40C12.9688 39.1492 12.9688 38.2984 12.9688 37.4219C11.2672 37.4219 9.56563 37.4219 7.8125 37.4219C7.8125 36.5711 7.8125 35.7203 7.8125 34.8438C6.93594 34.8438 6.05937 34.8438 5.15625 34.8438C5.15625 33.9672 5.15625 33.0906 5.15625 32.1875C4.30547 32.1875 3.45469 32.1875 2.57812 32.1875C2.57812 30.4859 2.57812 28.7844 2.57812 27.0312C1.72734 27.0312 0.876563 27.0312 0 27.0312C0 22.3906 0 17.75 0 12.9688C0.850781 12.9688 1.70156 12.9688 2.57812 12.9688C2.57812 11.2672 2.57812 9.56563 2.57812 7.8125C3.42891 7.8125 4.27969 7.8125 5.15625 7.8125C5.15625 6.93594 5.15625 6.05937 5.15625 5.15625C6.90938 5.15625 8.6625 5.15625 10.4688 5.15625C10.4688 7.76016 10.4688 10.3641 10.4688 13.0469C9.61797 13.0469 8.76719 13.0469 7.89062 13.0469C7.89062 17.6359 7.89062 22.225 7.89062 26.9531C8.74141 26.9531 9.59219 26.9531 10.4688 26.9531C10.4688 27.8039 10.4688 28.6547 10.4688 29.5312C11.3195 29.5312 12.1703 29.5312 13.0469 29.5312C13.0469 30.382 13.0469 31.2328 13.0469 32.1094C17.6359 32.1094 22.225 32.1094 26.9531 32.1094C26.9531 31.2586 26.9531 30.4078 26.9531 29.5312C27.8039 29.5312 28.6547 29.5312 29.5312 29.5312C29.5312 28.6805 29.5312 27.8297 29.5312 26.9531C30.382 26.9531 31.2328 26.9531 32.1094 26.9531C32.1094 24.0914 32.1094 21.2297 32.1094 18.2812C31.2586 18.2812 30.4078 18.2812 29.5312 18.2812C29.5312 17.4305 29.5312 16.5797 29.5312 15.7031C28.7062 15.7031 27.8813 15.7031 27.0312 15.7031C27.0312 16.5539 27.0312 17.4047 27.0312 18.2812C26.1547 18.2812 25.2781 18.2812 24.375 18.2812C24.375 19.1578 24.375 20.0344 24.375 20.9375C22.6219 20.9375 20.8687 20.9375 19.0625 20.9375C19.0625 14.0281 19.0625 7.11875 19.0625 0ZM21.7969 2.65625C21.7969 7.78672 21.7969 12.9172 21.7969 18.2031C22.6219 18.2031 23.4469 18.2031 24.2969 18.2031C24.2969 17.3523 24.2969 16.5016 24.2969 15.625C25.1734 15.625 26.05 15.625 26.9531 15.625C26.9531 14.7484 26.9531 13.8719 26.9531 12.9688C28.6805 12.9688 30.4078 12.9688 32.1875 12.9688C32.1875 14.6961 32.1875 16.4234 32.1875 18.2031C33.0641 18.2031 33.9406 18.2031 34.8438 18.2031C34.8438 21.0906 34.8438 23.9781 34.8438 26.9531C35.6688 26.9531 36.4938 26.9531 37.3438 26.9531C37.3438 23.2406 37.3438 19.5281 37.3438 15.7031C36.493 15.7031 35.6422 15.7031 34.7656 15.7031C34.7656 13.9758 34.7656 12.2484 34.7656 10.4688C33.8891 10.4688 33.0125 10.4688 32.1094 10.4688C32.1094 9.59219 32.1094 8.71562 32.1094 7.8125C32.9859 7.8125 33.8625 7.8125 34.7656 7.8125C34.7656 6.93594 34.7656 6.05937 34.7656 5.15625C35.6164 5.15625 36.4672 5.15625 37.3438 5.15625C37.3438 4.33125 37.3438 3.50625 37.3438 2.65625C32.2133 2.65625 27.0828 2.65625 21.7969 2.65625ZM5.23438 7.89062C5.23438 9.56641 5.23438 11.2422 5.23438 12.9688C6.08516 12.9688 6.93594 12.9688 7.8125 12.9688C7.8125 11.293 7.8125 9.61719 7.8125 7.89062C6.96172 7.89062 6.11094 7.89062 5.23438 7.89062ZM2.65625 13.0469C2.65625 17.6359 2.65625 22.225 2.65625 26.9531C3.48125 26.9531 4.30625 26.9531 5.15625 26.9531C5.15625 22.3641 5.15625 17.775 5.15625 13.0469C4.33125 13.0469 3.50625 13.0469 2.65625 13.0469ZM5.23438 27.0312C5.23438 28.707 5.23438 30.3828 5.23438 32.1094C6.08516 32.1094 6.93594 32.1094 7.8125 32.1094C7.8125 30.4336 7.8125 28.7578 7.8125 27.0312C6.96172 27.0312 6.11094 27.0312 5.23438 27.0312ZM32.1875 27.0312C32.1875 28.707 32.1875 30.3828 32.1875 32.1094C33.0383 32.1094 33.8891 32.1094 34.7656 32.1094C34.7656 30.4336 34.7656 28.7578 34.7656 27.0312C33.9148 27.0312 33.0641 27.0312 32.1875 27.0312ZM7.89062 32.1875C7.89062 33.0383 7.89062 33.8891 7.89062 34.7656C9.56641 34.7656 11.2422 34.7656 12.9688 34.7656C12.9688 33.9148 12.9688 33.0641 12.9688 32.1875C11.293 32.1875 9.61719 32.1875 7.89062 32.1875ZM27.0312 32.1875C27.0312 33.0383 27.0312 33.8891 27.0312 34.7656C28.707 34.7656 30.3828 34.7656 32.1094 34.7656C32.1094 33.9148 32.1094 33.0641 32.1094 32.1875C30.4336 32.1875 28.7578 32.1875 27.0312 32.1875ZM13.0469 34.8438C13.0469 35.6688 13.0469 36.4938 13.0469 37.3438C17.6359 37.3438 22.225 37.3438 26.9531 37.3438C26.9531 36.5187 26.9531 35.6937 26.9531 34.8438C22.3641 34.8438 17.775 34.8438 13.0469 34.8438Z" fill="black"/>
</g>
<defs>
<clipPath id="clip0_33_680">
<rect width="40" height="40" fill="white"/>
</clipPath>
</defs>
</svg>
