<svg width="56" height="40" viewBox="0 0 56 40" fill="none" xmlns="http://www.w3.org/2000/svg">
<g id="share-icon" clip-path="url(#clip0_37_1080)">
<path id="Vector" d="M0 0C18.3652 0 36.7304 0 55.6522 0C55.6522 2.43913 55.6522 4.87826 55.6522 7.3913C54.4685 7.3913 53.2848 7.3913 52.0652 7.3913C52.0652 8.575 52.0652 9.7587 52.0652 10.9783C50.8815 10.9783 49.6978 10.9783 48.4783 10.9783C48.4783 12.162 48.4783 13.3457 48.4783 14.5652C47.2587 14.5652 46.0391 14.5652 44.7826 14.5652C44.7826 15.7848 44.7826 17.0043 44.7826 18.2609C43.5989 18.2609 42.4152 18.2609 41.1957 18.2609C41.1957 19.4446 41.1957 20.6283 41.1957 21.8478C40.012 21.8478 38.8283 21.8478 37.6087 21.8478C37.613 23.0234 37.613 23.0234 37.6185 24.199C37.6188 24.3458 37.6191 24.4927 37.6193 24.6395C37.6199 24.7164 37.6204 24.7933 37.621 24.8725C37.621 25.06 37.6155 25.2474 37.6087 25.4348C37.5 25.5435 37.5 25.5435 37.1584 25.5558C37.0072 25.5558 36.8559 25.5552 36.7047 25.5541C36.6343 25.554 36.5639 25.5539 36.4914 25.5538C36.2275 25.5532 35.9636 25.5517 35.6997 25.5503C34.8153 25.5469 34.8153 25.5469 33.913 25.5435C33.913 26.7272 33.913 27.9109 33.913 29.1304C32.7293 29.1304 31.5457 29.1304 30.3261 29.1304C30.3261 30.3141 30.3261 31.4978 30.3261 32.7174C29.1065 32.7174 27.887 32.7174 26.6304 32.7174C26.6304 33.937 26.6304 35.1565 26.6304 36.413C25.4467 36.413 24.263 36.413 23.0435 36.413C23.0435 37.5967 23.0435 38.7804 23.0435 40C20.2098 40 17.3761 40 14.4565 40C14.4565 32.8261 14.4565 25.6522 14.4565 18.2609C13.2728 18.2609 12.0891 18.2609 10.8696 18.2609C10.8696 17.0413 10.8696 15.8217 10.8696 14.5652C9.65 14.5652 8.43043 14.5652 7.17391 14.5652C7.17391 13.3815 7.17391 12.1978 7.17391 10.9783C5.99022 10.9783 4.80652 10.9783 3.58696 10.9783C3.58696 9.79457 3.58696 8.61087 3.58696 7.3913C2.40326 7.3913 1.21957 7.3913 0 7.3913C0 4.95217 0 2.51304 0 0ZM3.69565 3.69565C3.69565 4.87935 3.69565 6.06304 3.69565 7.28261C4.87935 7.28261 6.06304 7.28261 7.28261 7.28261C7.28261 8.4663 7.28261 9.65 7.28261 10.8696C8.50217 10.8696 9.72174 10.8696 10.9783 10.8696C10.9783 12.0533 10.9783 13.237 10.9783 14.4565C12.162 14.4565 13.3457 14.4565 14.5652 14.4565C14.5652 15.6761 14.5652 16.8957 14.5652 18.1522C17.3272 18.1522 20.0891 18.1522 22.9348 18.1522C22.9348 16.9326 22.9348 15.713 22.9348 14.4565C25.338 14.4565 27.7413 14.4565 30.2174 14.4565C30.2174 13.2728 30.2174 12.0891 30.2174 10.8696C32.6565 10.8696 35.0956 10.8696 37.6087 10.8696C37.6087 12.0891 37.6087 13.3087 37.6087 14.5652C35.2054 14.5652 32.8022 14.5652 30.3261 14.5652C30.3261 15.7848 30.3261 17.0043 30.3261 18.2609C27.9228 18.2609 25.5196 18.2609 23.0435 18.2609C23.0435 19.4446 23.0435 20.6283 23.0435 21.8478C21.4293 21.8478 19.8152 21.8478 18.1522 21.8478C18.1522 26.6185 18.1522 31.3891 18.1522 36.3043C19.7304 36.3043 21.3087 36.3043 22.9348 36.3043C22.9348 35.0848 22.9348 33.8652 22.9348 32.6087C24.1185 32.6087 25.3022 32.6087 26.5217 32.6087C26.5217 31.425 26.5217 30.2413 26.5217 29.0217C27.7413 29.0217 28.9609 29.0217 30.2174 29.0217C30.2174 27.838 30.2174 26.6543 30.2174 25.4348C31.4011 25.4348 32.5848 25.4348 33.8043 25.4348C33.8043 24.2152 33.8043 22.9957 33.8043 21.7391C35.0239 21.7391 36.2435 21.7391 37.5 21.7391C37.5 20.5554 37.5 19.3717 37.5 18.1522C38.6837 18.1522 39.8674 18.1522 41.087 18.1522C41.087 16.9326 41.087 15.713 41.087 14.4565C42.2706 14.4565 43.4543 14.4565 44.6739 14.4565C44.6739 13.2728 44.6739 12.0891 44.6739 10.8696C45.8935 10.8696 47.113 10.8696 48.3696 10.8696C48.3696 9.68587 48.3696 8.50217 48.3696 7.28261C49.5533 7.28261 50.737 7.28261 51.9565 7.28261C51.9565 6.09891 51.9565 4.91522 51.9565 3.69565C36.0304 3.69565 20.1043 3.69565 3.69565 3.69565Z" fill="black"/>
</g>
<defs>
<clipPath id="clip0_37_1080">
<rect width="56" height="40" fill="white"/>
</clipPath>
</defs>
</svg>
